<?xml version="1.0" encoding="utf-8"?>
<!-- Generator: Adobe Illustrator 16.0.0, SVG Export Plug-In . SVG Version: 6.00 Build 0)  -->
<!DOCTYPE svg PUBLIC "-//W3C//DTD SVG 1.1//EN" "http://www.w3.org/Graphics/SVG/1.1/DTD/svg11.dtd">
<svg version="1.1"
	 id="svg8233" sodipodi:docname="calk.svg" inkscape:version="0.92.1 r15371" xmlns:dc="http://purl.org/dc/elements/1.1/" xmlns:cc="http://creativecommons.org/ns#" xmlns:rdf="http://www.w3.org/1999/02/22-rdf-syntax-ns#" xmlns:svg="http://www.w3.org/2000/svg" xmlns:sodipodi="http://sodipodi.sourceforge.net/DTD/sodipodi-0.dtd" xmlns:inkscape="http://www.inkscape.org/namespaces/inkscape"
	 xmlns="http://www.w3.org/2000/svg" xmlns:xlink="http://www.w3.org/1999/xlink" x="0px" y="0px" width="49.242px"
	 height="49.242px" viewBox="0 0.758 49.242 49.242" enable-background="new 0 0.758 49.242 49.242" xml:space="preserve">
<sodipodi:namedview  units="px" inkscape:window-maximized="1" inkscape:window-y="-8" inkscape:current-layer="g9171" inkscape:window-x="-8" inkscape:pageshadow="2" inkscape:document-units="mm" inkscape:pageopacity="0.0" inkscape:window-height="1017" inkscape:window-width="1920" showgrid="false" inkscape:cy="21.605292" inkscape:cx="-114.39503" inkscape:zoom="1.4" borderopacity="1.0" bordercolor="#666666" pagecolor="#ffffff" id="base">
	</sodipodi:namedview>
<g id="layer1" transform="translate(0,-283.77083)" inkscape:groupmode="layer" inkscape:label="Layer 1">
	<path id="rect8951" inkscape:connector-curvature="0" d="M-140.446,366.385v39.74h63.107v-39.74H-140.446z M-138.351,368.331
		h58.916v35.848h-58.916V368.331z"/>
	<rect id="rect8969" x="-138.349" y="378.912" fill="#CA0421" width="58.907" height="1.877"/>
	<rect id="rect8969-1" x="-131.824" y="385.907" fill="#CA0421" width="12.615" height="1.877"/>
	<g id="g9171" transform="matrix(0.30497182,0,0,0.30497182,22.59333,206.42337)">
		
			<path id="path8898" sodipodi:nodetypes="ccccccccccccccccccscccccccccccccccccc" inkscape:connector-curvature="0" fill="#010101" d="
			M-74.083,336.839v-80.732H6.649h80.732v80.732v80.732H6.649h-80.732V336.839z M3.81,339.676
			c-24.072-0.109-47.523-0.218-71.597-0.327c-0.107,24.227-0.722,49.204-0.195,73.175c32.149,0.394,31.933-0.154,71.792-0.314
			V339.676z M81.553,375.78l0.16-36.431c-24.075,0.109-48.151,0.218-72.226,0.327c0.112,24.013-0.399,47.866-0.024,72.067
			c0.24,0.628,7.8,0.759,36.114,0.628l35.81-0.16L81.553,375.78z M3.81,297.734v-36.266h-35.95h-35.952l-0.162,36.429l-0.37,36.014
			c25.939,0.306,48.359,0.197,72.434,0.088V297.734z M81.553,297.893l-0.167-36.424H45.438H9.488l-0.165,35.635
			c-0.09,19.6-0.235,36.405-0.069,36.839c27.024,0.399,40.856,0.373,72.46,0.373L81.553,297.893z"/>
		<rect id="rect8969-1-3" x="27.096" y="292.265" width="37.825" height="6.155"/>
		<g id="g9128" transform="translate(-26.513547,-0.39514122)">
			<rect id="rect8969-1-3-9" x="53.61" y="362.531" fill="#CA0421" width="37.825" height="6.155"/>
			<rect id="rect8969-1-3-9-8" x="53.61" y="379.361" fill="#CA0421" width="37.825" height="6.155"/>
		</g>
		<g id="g9098" transform="translate(-41.426776,11.893487)">
			<rect id="rect8969-1-3-0" x="-10.472" y="280.371" width="37.828" height="6.155"/>
			<rect id="rect8969-1-3-0-2" x="5.366" y="264.535" width="6.155" height="37.828"/>
		</g>
		<g id="g9158" transform="translate(-0.26726953,0.26726953)">
			
				<rect id="rect8969-1-3-0-4" x="-50.622" y="371.799" transform="matrix(-0.7071 -0.7071 0.7071 -0.7071 -319.2117 617.5235)" width="37.83" height="6.152"/>
			
				<rect id="rect8969-1-3-0-2-1" x="-50.62" y="371.803" transform="matrix(0.7072 -0.707 0.707 0.7072 -274.3402 87.3573)" width="37.825" height="6.152"/>
		</g>
	</g>
	<g id="g9348" transform="matrix(0.31307129,0,0,0.31307129,-89.975685,191.96999)">
		<g id="g9365" transform="matrix(0.59751121,0,0,0.59751121,158.61466,165.98262)">
			<path id="path9358" inkscape:connector-curvature="0" fill="#D0D0D0" d="M-354.337,366.387c0-0.209,0.786-0.997,1.749-1.754
				c1.587-1.242,1.621-1.206,0.378,0.381C-353.518,366.68-354.337,367.212-354.337,366.387z M-504.933,327.513l-1.905-2.25
				l2.25,1.905c2.114,1.791,2.704,2.595,1.906,2.595C-502.873,329.763-503.886,328.75-504.933,327.513z M-494.338,324.263
				c-0.686-0.825-1.021-1.501-0.747-1.501c0.277,0,1.062,0.676,1.746,1.501c0.684,0.825,1.021,1.501,0.744,1.501
				C-492.868,325.764-493.654,325.088-494.338,324.263z M-339.339,319.265c1.292-1.376,2.574-2.501,2.85-2.501
				c0.274,0-0.559,1.125-1.851,2.501c-1.292,1.373-2.574,2.498-2.848,2.498S-340.631,320.638-339.339,319.265z M-505.932,311.515
				l-1.906-2.25l2.25,1.903c2.114,1.791,2.704,2.597,1.905,2.597C-503.873,313.765-504.886,312.752-505.932,311.515z
				 M-346.34,308.262c-0.684-0.825-1.018-1.498-0.744-1.498c0.274,0,1.06,0.673,1.746,1.498c0.684,0.825,1.018,1.501,0.744,1.501
				C-344.867,309.763-345.653,309.087-346.34,308.262z M-509.837,293.763c2.707-2.749,5.15-4.999,5.424-4.999
				c0.274,0-1.718,2.25-4.424,4.999c-2.709,2.751-5.15,5.001-5.424,5.001C-514.539,298.764-512.547,296.514-509.837,293.763z
				 M-357.934,295.514l-1.903-2.25l2.25,1.905c2.114,1.788,2.704,2.595,1.903,2.595
				C-355.872,297.764-356.885,296.751-357.934,295.514z M-497.337,296.636c0-0.274,1.349-1.793,2.999-3.372
				c1.65-1.582,2.999-2.649,2.999-2.375c0,0.277-1.349,1.793-2.999,3.375C-495.987,295.843-497.337,296.913-497.337,296.636z
				 M-348.415,290.014l-2.422-2.751l2.749,2.425c2.571,2.266,3.208,3.075,2.425,3.075
				C-345.844,292.763-347.081,291.526-348.415,290.014L-348.415,290.014z M-349.26,261.179c0.05-1.164,0.287-1.402,0.606-0.603
				c0.29,0.723,0.253,1.584-0.078,1.916C-349.067,262.826-349.302,262.233-349.26,261.179z M-503.181,259.764
				c0-1.376,0.227-1.939,0.506-1.25c0.277,0.686,0.277,1.812,0,2.501C-502.954,261.701-503.181,261.137-503.181,259.764
				L-503.181,259.764z M-501.339,253.385c0-0.206,0.788-0.995,1.751-1.749c1.584-1.242,1.621-1.209,0.376,0.378
				C-500.516,253.68-501.339,254.21-501.339,253.385L-501.339,253.385z M-400.526,220.081c0.723-0.29,1.584-0.253,1.916,0.078
				c0.334,0.331-0.258,0.569-1.313,0.525C-401.087,220.637-401.324,220.399-400.526,220.081z"/>
			<path id="path9356" inkscape:connector-curvature="0" fill="#999999" d="M-363.468,440.492c0.425-0.423,9.966-0.647,21.2-0.496
				l20.43,0.271l-21.203,0.501C-354.7,441.04-363.893,440.915-363.468,440.492L-363.468,440.492z M-521.033,440.017
				c5.941-0.177,15.39-0.177,20.999,0c5.607,0.178,0.744,0.324-10.804,0.324C-522.388,440.341-526.976,440.195-521.033,440.017
				L-521.033,440.017z M-521.341,430.015c0-0.412,5.513-0.637,12.25-0.491c22.325,0.475,24.484,0.851,6.004,1.044
				C-513.126,430.678-521.338,430.427-521.341,430.015z M-361.839,430.083c14.573-0.72,30.503-0.757,30.503-0.068
				c-0.003,0.412-8.214,0.663-18.253,0.553C-359.626,430.464-365.138,430.244-361.839,430.083z M-452.527,397.084
				c0.723-0.292,1.584-0.256,1.919,0.073c0.332,0.334-0.258,0.574-1.313,0.527C-453.086,397.637-453.323,397.397-452.527,397.084z
				 M-427.526,376.077c0.723-0.282,1.584-0.251,1.916,0.084c0.334,0.334-0.258,0.569-1.31,0.522
				C-428.087,376.635-428.322,376.4-427.526,376.077z M-350.26,357.178c0.05-1.164,0.287-1.399,0.606-0.606
				c0.287,0.726,0.253,1.587-0.078,1.921C-350.067,358.828-350.302,358.233-350.26,357.178z M-358.339,324.263
				c1.292-1.376,2.574-2.501,2.85-2.501c0.274,0-0.559,1.125-1.851,2.501c-1.289,1.376-2.574,2.501-2.848,2.501
				C-360.461,326.764-359.631,325.639-358.339,324.263z M-343.839,323.762c0.997-1.099,2.036-1.999,2.31-1.999
				c0.277,0-0.313,0.901-1.31,1.999c-0.995,1.102-2.033,2.002-2.31,2.002C-345.423,325.764-344.833,324.864-343.839,323.762z
				 M-497.337,321.264c-0.687-0.825-1.021-1.501-0.747-1.501c0.277,0,1.06,0.676,1.746,1.501c0.684,0.825,1.018,1.498,0.744,1.498
				C-495.867,322.762-496.653,322.089-497.337,321.264z M-513.338,318.262c-0.684-0.825-1.021-1.498-0.747-1.498
				c0.277,0,1.062,0.673,1.746,1.498c0.684,0.827,1.021,1.501,0.744,1.501C-511.868,319.763-512.654,319.09-513.338,318.262z
				 M-338.339,301.264c-0.684-0.825-1.018-1.501-0.744-1.501c0.274,0,1.06,0.676,1.744,1.501c0.686,0.825,1.021,1.498,0.747,1.498
				C-336.87,302.763-337.653,302.089-338.339,301.264z M-499.838,298.764c0.995-1.102,2.033-1.999,2.31-1.999
				c0.274,0-0.316,0.898-1.31,1.999c-0.997,1.099-2.036,1.999-2.31,1.999C-501.425,300.763-500.835,299.863-499.838,298.764
				L-499.838,298.764z M-354.337,299.262c-0.686-0.825-1.021-1.498-0.747-1.498c0.277,0,1.06,0.673,1.746,1.498
				c0.684,0.825,1.021,1.501,0.744,1.501C-352.868,300.763-353.653,300.087-354.337,299.262z M-502.839,286.764
				c0.997-1.102,2.036-2.002,2.31-2.002c0.277,0-0.313,0.901-1.308,2.002c-0.997,1.099-2.036,1.999-2.31,1.999
				C-504.424,288.764-503.834,287.863-502.839,286.764z M-490.18,284.762c0-1.373,0.227-1.937,0.504-1.25
				c0.277,0.689,0.277,1.814,0,2.501C-489.953,286.702-490.18,286.138-490.18,284.762z"/>
			<path id="path9354" inkscape:connector-curvature="0" fill="#616161" d="M-535.259,435.183c0.047-1.169,0.284-1.404,0.603-0.606
				c0.29,0.72,0.253,1.582-0.078,1.916C-535.065,436.822-535.303,436.238-535.259,435.183z M-318.259,435.183
				c0.047-1.169,0.285-1.404,0.603-0.606c0.29,0.72,0.253,1.582-0.078,1.916C-318.065,436.822-318.303,436.238-318.259,435.183z
				 M-459.337,394.265c-0.687-0.825-1.021-1.504-0.747-1.504c0.277,0,1.06,0.679,1.746,1.504c0.684,0.825,1.018,1.498,0.744,1.498
				C-457.867,395.763-458.653,395.09-459.337,394.265z M-349.339,329.264c1.866-1.926,3.618-3.5,3.892-3.5
				c0.277,0-1.026,1.574-2.892,3.5c-1.864,1.924-3.618,3.498-3.892,3.498C-352.505,332.762-351.205,331.188-349.339,329.264
				L-349.339,329.264z M-509.934,321.512l-1.906-2.247l2.25,1.903c2.114,1.791,2.707,2.595,1.905,2.595
				C-507.872,323.762-508.885,322.752-509.934,321.512z M-355.337,321.7c0-0.274,2.699-3.171,5.998-6.437
				c3.299-3.265,6.001-5.711,6.001-5.437s-2.702,3.171-6.001,6.437C-352.638,319.528-355.337,321.977-355.337,321.7z
				 M-500.934,317.513l-1.905-2.25l2.25,1.905c2.114,1.791,2.707,2.595,1.905,2.595
				C-498.872,319.763-499.885,318.75-500.934,317.513z M-505.337,304.264c1.864-1.926,3.615-3.5,3.892-3.5
				c0.274,0-1.028,1.574-2.892,3.5c-1.866,1.926-3.618,3.5-3.892,3.5C-508.506,307.764-507.204,306.19-505.337,304.264z
				 M-350.934,302.515l-1.905-2.25l2.25,1.903c2.114,1.791,2.707,2.597,1.905,2.597
				C-348.874,304.765-349.884,303.752-350.934,302.515z M-342.902,296.514l-2.937-3.25l3.25,2.937
				c3.031,2.738,3.709,3.563,2.937,3.563C-339.824,299.763-341.286,298.302-342.902,296.514L-342.902,296.514z M-500.26,283.181
				c0.05-1.167,0.287-1.402,0.606-0.606c0.29,0.723,0.253,1.584-0.078,1.919C-500.067,284.825-500.302,284.235-500.26,283.181z
				 M-491.26,277.18c0.05-1.164,0.287-1.402,0.606-0.603c0.287,0.72,0.253,1.584-0.078,1.916
				C-491.067,278.824-491.302,278.234-491.26,277.18z M-501.26,274.18c0.05-1.164,0.285-1.402,0.606-0.606
				c0.287,0.723,0.253,1.584-0.081,1.919C-501.067,275.825-501.302,275.235-501.26,274.18z M-492.26,269.179
				c0.05-1.164,0.285-1.402,0.606-0.603c0.287,0.72,0.253,1.584-0.081,1.916C-492.067,270.826-492.302,270.234-492.26,269.179z
				 M-465.338,253.385c0-0.206,0.788-0.995,1.749-1.749c1.587-1.242,1.621-1.209,0.378,0.378
				C-464.516,253.68-465.338,254.21-465.338,253.385z M-426.589,241.101c0.689-0.277,1.814-0.277,2.501,0
				c0.687,0.277,0.125,0.504-1.25,0.504C-426.714,241.605-427.275,241.378-426.589,241.101z M-394.339,223.262
				c-0.684-0.825-1.018-1.498-0.744-1.498c0.274,0,1.06,0.673,1.744,1.498c0.686,0.825,1.021,1.501,0.747,1.501
				C-392.867,224.763-393.653,224.087-394.339,223.262z"/>
			<path id="path9352" inkscape:connector-curvature="0" fill="#CA0421" d="M-438.839,358.348
				c-17.781-4.417-32.328-18.995-36.969-37.045c-8.891-34.601,20.66-67.796,55.854-62.742c32.216,4.628,52.262,37.287,41.346,67.363
				C-387.568,350.611-413.592,364.623-438.839,358.348z M-408.965,344.425c24.108-11.918,29.898-42.283,11.79-61.852
				c-10.363-11.201-23.691-15.534-37.867-12.31c-27.515,6.259-40.14,37.974-24.288,61.012c7.959,11.571,20.352,17.703,34.68,17.162
				C-417.57,348.171-415.446,347.628-408.965,344.425z"/>
			<path id="path9350" inkscape:connector-curvature="0" fill="#010101" d="M-388.537,474.514
				c-0.869-0.689-9.345-14.753-18.838-31.25c-9.491-16.502-17.758-30.55-18.368-31.224c-0.843-0.924-5.596,6.432-19.522,30.211
				c-10.125,17.285-19.073,31.683-19.882,31.991c-3.367,1.295-5.495-1.232-14.782-17.536l-9.65-16.94h-21.18
				c-22.265,0-23.578-0.256-23.578-4.542c0-1.169,8.486-17.16,18.859-35.531l18.856-33.39l-2.801-2.621
				c-1.54-1.441-3.046-3.696-3.349-5.017c-0.3-1.321,0.264-7.805,1.25-14.403l1.796-11.999l-8.781-9.726
				c-12.889-14.275-12.884-15.675,0.13-29.13l8.883-9.18l-1.545-12.863c-1.415-11.775-1.41-13.15,0.073-16.254
				c1.973-4.142,3.537-4.766,18.253-7.285c6.4-1.094,11.728-2.12,11.843-2.276c0.112-0.157,2.866-5.181,6.118-11.167
				c5.766-10.611,9.46-14.604,13.513-14.615c0.882-0.003,6.646,2.472,12.808,5.497c6.165,3.025,11.801,5.5,12.524,5.5
				c0.726,0,6.212-2.245,12.192-4.986c5.98-2.741,12.078-4.991,13.547-5.001c4.223-0.021,7.909,3.978,13.764,14.936
				c2.989,5.599,6.139,10.543,6.998,10.989c0.861,0.444,6.168,1.608,11.796,2.584s11.603,2.61,13.276,3.628
				c4.886,2.97,5.328,5.583,3.362,19.974l-1.733,12.72l8.661,9.574c4.766,5.265,8.948,10.699,9.293,12.078
				c1.146,4.568-0.619,7.716-9.478,16.901l-8.778,9.102l1.417,11.895c1.569,13.158,1.128,18.045-1.798,19.872
				c-1.073,0.668-1.95,1.639-1.95,2.161s8.324,15.63,18.499,33.573c10.175,17.943,18.501,33.552,18.501,34.69
				c0,3.905-1.885,4.26-23.978,4.542l-21.323,0.266l-8.877,16.001c-7.951,14.325-11.597,19.504-13.743,19.504
				C-386.642,475.767-387.668,475.203-388.537,474.514L-388.537,474.514z M-376.877,444.763c3.205-5.774,6.507-11.287,7.337-12.253
				c1.336-1.545,3.628-1.744,19.856-1.744c10.089,0,18.345-0.292,18.345-0.642s-7.737-14.288-17.194-30.973
				c-14.852-26.202-17.473-30.268-19.248-29.898c-1.133,0.235-4.62,0.924-7.755,1.53l-5.696,1.096l-5.964,10.712
				c-9.663,17.332-10.726,17.718-26.951,9.736c-10.462-5.147-14.192-6.458-14.192-4.986c0,0.653,5.314,9.971,27.243,47.747
				l14.991,25.821l1.702-2.824C-383.468,456.535-380.08,450.542-376.877,444.763z M-448.917,429.482l16.591-28.775l-2.052-4.02
				c-1.128-2.214-2.623-4.239-3.325-4.51c-0.7-0.271-3.717,0.647-6.703,2.036c-10.48,4.881-13.675,3.017-21.931-12.806
				c-5.889-11.281-5.688-11.12-15.124-12.226l-5.539-0.653l-17.168,30.435c-9.444,16.737-17.17,30.743-17.17,31.119
				c0,0.371,8.256,0.684,18.345,0.684c16.236,0,18.517,0.198,19.838,1.744c0.822,0.966,4.785,7.512,8.807,14.555
				c4.022,7.037,7.656,12.435,8.076,11.997C-465.852,458.623-458.042,445.311-448.917,429.482L-448.917,429.482z M-429.113,377.424
				c3.461-0.981,4.529-0.684,15.001,4.223c6.199,2.908,11.723,5.466,12.273,5.685s3.701-4.594,7.001-10.702
				c3.299-6.108,6.959-11.746,8.134-12.524c1.172-0.778,7.444-2.328,13.939-3.44c6.492-1.107,12.093-2.193,12.446-2.412
				c0.35-0.219,0.057-4.803-0.655-10.193c-2.412-18.298-2.73-17.183,8.1-28.209l9.465-9.632l-8.974-9.841
				c-4.933-5.414-9.191-10.804-9.459-11.978c-0.266-1.177,0.339-7.669,1.349-14.429c1.008-6.758,1.519-12.485,1.135-12.72
				c-0.381-0.238-6.272-1.618-13.088-3.07s-13.145-3.305-14.069-4.119c-0.921-0.812-4.239-6.387-7.369-12.388
				s-6.024-10.911-6.434-10.911c-0.407,0-5.547,2.25-11.42,4.999c-6.393,2.994-12.078,5.001-14.158,5.001
				c-2.213,0-7.434-1.986-14.385-5.471l-10.908-5.474l-5.706,10.423c-3.138,5.732-6.747,11.399-8.019,12.594
				c-1.744,1.637-5.416,2.722-14.886,4.401c-6.915,1.227-12.735,2.409-12.931,2.629c-0.198,0.219,0.238,5.124,0.968,10.898
				c2.307,18.214,2.712,16.758-7.674,27.496c-5.004,5.173-8.943,9.862-8.75,10.42c0.193,0.559,3.834,4.821,8.094,9.47
				c4.26,4.651,8.188,9.624,8.734,11.054c0.705,1.856,0.452,6.244-0.882,15.33c-1.026,7.001-1.806,12.806-1.731,12.9
				c0.078,0.089,5.763,1.154,12.636,2.365c6.875,1.206,13.461,2.798,14.638,3.529c1.177,0.736,4.899,6.515,8.269,12.842
				l6.129,11.511l9.731-4.599C-437.218,380.556-431.162,378.008-429.113,377.424z"/>
		</g>
	</g>
	<g id="g9429" transform="matrix(0.30999864,0,0,0.30999864,-25.942363,164.43605)">
		<path id="path9188" inkscape:connector-curvature="0" fill="#CA0421" d="M118.064,233.131
			c-6.902-6.987-12.547-13.47-12.547-14.406c0-2.224,2.893-5.073,5.152-5.073c0.98,0,6.493,4.694,12.251,10.43l10.47,10.43
			l19.654-19.549c19.305-19.204,22.182-21.288,25.206-18.262c3.141,3.139,1.055,5.938-20.445,27.419
			c-16.868,16.852-22.346,21.714-24.463,21.714C131.277,245.836,127.554,242.737,118.064,233.131L118.064,233.131z"/>
		<g id="g9378" transform="matrix(0.29300486,0,0,0.29300486,47.025853,268.83218)">
			<path id="path9388" inkscape:connector-curvature="0" d="M96.802,162.373c0.677-0.274,2.027-0.29,3-0.038
				s0.419,0.479-1.231,0.495C96.92,162.851,96.124,162.647,96.802,162.373L96.802,162.373z M207.885,162.346
				c0.72-0.29,1.586-0.253,1.914,0.081c0.333,0.328-0.258,0.564-1.312,0.521C207.326,162.9,207.084,162.663,207.885,162.346z
				 M217.803,162.373c0.677-0.274,2.027-0.29,3-0.038s0.419,0.479-1.231,0.495C217.921,162.851,217.126,162.647,217.803,162.373
				L217.803,162.373z M667.803,162.373c0.677-0.274,2.021-0.29,3-0.038c0.978,0.253,0.419,0.479-1.236,0.495
				C667.921,162.851,667.125,162.647,667.803,162.373L667.803,162.373z M676.823,162.362c0.688-0.274,1.817-0.274,2.505,0
				c0.688,0.28,0.118,0.505-1.258,0.505C676.694,162.867,676.135,162.641,676.823,162.362L676.823,162.362z M57.478,144.778
				l-1.908-2.252l2.252,1.903c2.113,1.79,2.704,2.596,1.903,2.596C59.537,147.025,58.527,146.015,57.478,144.778z M165.476,141.778
				l-1.903-2.252l2.247,1.903c1.242,1.048,2.252,2.064,2.252,2.252C168.073,144.482,167.266,143.891,165.476,141.778z
				 M722.57,142.026c0.989-1.102,2.043-2,2.312-2s-0.312,0.898-1.312,2c-1,1.102-2.032,2-2.312,2S721.581,143.128,722.57,142.026z
				 M53.07,140.526c-0.683-0.823-1.016-1.5-0.742-1.5c0.274,0,1.059,0.677,1.742,1.5c0.688,0.823,1.021,1.5,0.747,1.5
				S53.758,141.348,53.07,140.526z M98.823,137.365c0.688-0.28,1.812-0.28,2.5,0c0.688,0.274,0.124,0.505-1.253,0.505
				C98.699,137.87,98.135,137.639,98.823,137.365z M105.822,137.365c0.688-0.28,1.812-0.28,2.5,0
				c0.688,0.274,0.124,0.505-1.247,0.505C105.698,137.87,105.134,137.639,105.822,137.365z M210.82,137.365
				c0.688-0.28,1.812-0.28,2.5,0c0.688,0.274,0.129,0.505-1.247,0.505S210.132,137.639,210.82,137.365L210.82,137.365z
				 M216.819,137.365c0.688-0.28,1.817-0.28,2.5,0c0.688,0.274,0.129,0.505-1.247,0.505S216.137,137.639,216.819,137.365
				L216.819,137.365z M669.824,137.365c0.688-0.28,1.806-0.28,2.494,0c0.688,0.274,0.129,0.505-1.247,0.505
				S669.136,137.639,669.824,137.365L669.824,137.365z M676.877,137.344c0.731-0.285,1.591-0.253,1.924,0.081
				c0.333,0.333-0.258,0.57-1.312,0.527C676.318,137.903,676.081,137.666,676.877,137.344L676.877,137.344z M73.073,125.528
				c-0.688-0.823-1.021-1.5-0.747-1.5c0.274,0,1.059,0.677,1.747,1.5c0.683,0.823,1.016,1.5,0.742,1.5
				C74.541,127.028,73.756,126.35,73.073,125.528z M631.151,99.445c0.054-1.167,0.29-1.403,0.602-0.607
				c0.29,0.726,0.247,1.586-0.075,1.919C631.345,101.09,631.108,100.498,631.151,99.445z M146.151,98.445
				c0.048-1.167,0.285-1.403,0.607-0.607c0.285,0.726,0.253,1.586-0.081,1.919C146.344,100.09,146.108,99.499,146.151,98.445z
				 M60.344,94.026c0-2.473,0.194-3.483,0.435-2.247c0.237,1.236,0.237,3.263,0,4.5C60.537,97.515,60.344,96.504,60.344,94.026z
				 M687.263,94.526c0.022-1.65,0.247-2.204,0.495-1.231c0.258,0.973,0.237,2.322-0.032,3S687.241,96.176,687.263,94.526
				L687.263,94.526z M742.149,95.445c0.054-1.167,0.29-1.403,0.613-0.607c0.28,0.726,0.247,1.586-0.086,1.919
				C742.342,97.09,742.106,96.499,742.149,95.445z M90.152,94.445c0.048-1.167,0.285-1.403,0.602-0.607
				c0.29,0.726,0.253,1.586-0.075,1.919C90.345,96.09,90.109,95.499,90.152,94.445z M717.152,94.445
				c0.043-1.167,0.28-1.403,0.602-0.607c0.29,0.726,0.258,1.586-0.086,1.919C717.345,96.09,717.109,95.499,717.152,94.445z
				 M146.151,91.446c0.048-1.167,0.285-1.403,0.602-0.607c0.29,0.726,0.258,1.586-0.075,1.919
				C146.344,93.091,146.108,92.499,146.151,91.446z M212.884,81.345c0.72-0.29,1.586-0.253,1.919,0.081
				c0.328,0.328-0.258,0.564-1.317,0.521C212.325,81.899,212.089,81.662,212.884,81.345z M133.475,63.777l-1.903-2.247l2.252,1.903
				c1.236,1.048,2.247,2.059,2.247,2.247C136.071,66.481,135.265,65.89,133.475,63.777z M598.069,52.026l-22.497-0.554l22.196-0.226
				c13.955-0.134,22.417,0.151,22.804,0.779c0.333,0.554,0.484,0.903,0.312,0.78C620.712,52.687,610.444,52.332,598.069,52.026
				L598.069,52.026z M-33.177,51.295c2.338-0.21,6.161-0.21,8.499,0c2.338,0.21,0.425,0.382-4.252,0.382
				C-33.602,51.676-35.516,51.504-33.177,51.295z M16.876,51.279c6.22-0.172,16.122-0.172,22.003,0.005
				c5.881,0.172,0.796,0.317-11.305,0.317S10.661,51.456,16.876,51.279L16.876,51.279z M101.801,51.37
				c0.677-0.274,2.027-0.29,3-0.038c0.973,0.253,0.419,0.478-1.231,0.5C101.925,51.848,101.124,51.644,101.801,51.37L101.801,51.37z
				 M213.32,51.338c0.962-0.253,2.537-0.253,3.5,0c0.962,0.253,0.177,0.457-1.747,0.457S212.358,51.59,213.32,51.338z
				 M332.822,51.279c34.786-0.145,91.715-0.145,126.501,0s6.322,0.263-63.25,0.263C326.494,51.542,298.035,51.424,332.822,51.279z
				 M673.329,51.311c1.527-0.231,3.774-0.226,5.01,0.016c1.226,0.236-0.021,0.425-2.774,0.419
				C672.824,51.735,671.813,51.542,673.329,51.311L673.329,51.311z M721.506,45.779l-2.935-3.252l3.247,2.94
				c1.785,1.613,3.247,3.075,3.247,3.247C725.065,49.489,724.248,48.811,721.506,45.779z M564.267,38.527
				c0.016-1.65,0.242-2.204,0.5-1.231c0.253,0.973,0.237,2.322-0.038,3S564.245,40.178,564.267,38.527L564.267,38.527z
				 M676.802,26.373c0.677-0.274,2.032-0.29,3-0.038c0.968,0.253,0.419,0.479-1.226,0.5
				C676.92,26.851,676.124,26.647,676.802,26.373L676.802,26.373z M787.821,9.294c2.333-0.21,6.161-0.21,8.504,0
				c2.333,0.215,0.419,0.387-4.258,0.387C787.401,9.681,785.487,9.509,787.821,9.294z M144.242-4.72
				c76.819-0.145,202.814-0.145,279.999,0c77.184,0.14,14.332,0.253-139.671,0.253C130.572-4.467,67.423-4.58,144.242-4.72z
				 M775.069-10.348c0-0.21,0.785-0.995,1.753-1.752c1.591-1.242,1.613-1.21,0.376,0.382
				C775.897-10.058,775.069-9.526,775.069-10.348L775.069-10.348z M787.821-15.703c2.333-0.21,6.161-0.21,8.504,0
				c2.333,0.21,0.419,0.382-4.258,0.382C787.401-15.321,785.487-15.493,787.821-15.703z M704.379-143.719
				c9.246-0.167,24.105-0.167,33.007,0c8.902,0.167,1.333,0.301-16.815,0.301C702.422-143.418,695.133-143.553,704.379-143.719
				L704.379-143.719z M708.013-168.716c26.76-0.21,35.673-0.586,36.34-1.521c0.634-0.903,0.763-0.833,0.462,0.263
				c-0.355,1.301-5.257,1.505-36.329,1.521l-35.91,0.021L708.013-168.716L708.013-168.716z M766.07-220.474
				c-0.688-0.823-1.021-1.5-0.742-1.5c0.269,0,1.064,0.677,1.742,1.5c0.688,0.828,1.021,1.5,0.742,1.5
				C767.543-218.974,766.759-219.646,766.07-220.474z M621.077-301.469c-0.688-0.828-1.032-1.505-0.753-1.505
				s1.064,0.677,1.742,1.505c0.688,0.823,1.032,1.5,0.753,1.5S621.755-300.647,621.077-301.469z M-39.117-307.657
				c0.726-0.285,1.586-0.253,1.919,0.081c0.333,0.333-0.258,0.57-1.312,0.527C-39.677-307.098-39.913-307.334-39.117-307.657z
				 M606.885-307.657c0.72-0.285,1.58-0.253,1.914,0.081c0.333,0.333-0.258,0.57-1.312,0.527
				C606.326-307.098,606.09-307.334,606.885-307.657z"/>
			<path id="path9386" inkscape:connector-curvature="0" d="M102.822,162.324c1.236-0.242,3.263-0.242,4.499,0
				c1.236,0.237,0.226,0.43-2.247,0.43C102.597,162.754,101.586,162.561,102.822,162.324z M211.836,162.319
				c1.242-0.237,3.043-0.231,4,0.021c0.952,0.247-0.064,0.446-2.263,0.435C211.374,162.765,210.589,162.556,211.836,162.319
				L211.836,162.319z M672.824,162.367c0.677-0.28,1.817-0.28,2.505,0c0.677,0.274,0.118,0.5-1.258,0.5
				C672.695,162.867,672.136,162.641,672.824,162.367z M703.067,126.651c0-0.21,0.796-0.995,1.753-1.752
				c1.58-1.242,1.623-1.21,0.376,0.376C703.895,126.942,703.067,127.474,703.067,126.651L703.067,126.651z M102.887,107.342
				c0.72-0.285,1.58-0.253,1.914,0.081c0.333,0.333-0.258,0.57-1.312,0.527c-1.167-0.048-1.403-0.285-0.602-0.602V107.342z
				 M673.888,107.342c0.71-0.285,1.58-0.253,1.914,0.081c0.333,0.333-0.258,0.57-1.312,0.527c-1.161-0.048-1.398-0.285-0.602-0.602
				V107.342z M2.883,106.342c0.726-0.285,1.586-0.253,1.919,0.081c0.333,0.333-0.258,0.57-1.312,0.527
				C2.324,106.901,2.087,106.664,2.883,106.342z M717.152,97.445c0.043-1.167,0.28-1.403,0.602-0.607
				c0.29,0.726,0.258,1.586-0.086,1.919C717.345,99.09,717.109,98.499,717.152,97.445z M171.228,94.026
				c0-1.371,0.226-1.935,0.505-1.247c0.28,0.688,0.28,1.812,0,2.5C171.459,95.967,171.228,95.402,171.228,94.026z M717.152,91.446
				c0.043-1.167,0.28-1.403,0.602-0.607c0.29,0.726,0.258,1.586-0.086,1.919C717.345,93.091,717.109,92.499,717.152,91.446z
				 M673.888,81.345c0.71-0.29,1.58-0.253,1.914,0.081c0.333,0.328-0.258,0.564-1.312,0.521
				C673.329,81.899,673.092,81.662,673.888,81.345z M4.259,66.836c-0.102-8.08,0.151-14.901,0.564-15.154
				c0.414-0.258,0.629,4.102,0.484,9.687C4.829,79.754,4.447,81.753,4.259,66.836z M98.882,51.343
				c0.726-0.285,1.586-0.253,1.919,0.081c0.333,0.333-0.258,0.57-1.312,0.527C98.323,51.902,98.086,51.666,98.882,51.343z
				 M106.886,51.343c0.72-0.285,1.58-0.253,1.914,0.081c0.333,0.333-0.258,0.57-1.312,0.527
				C106.322,51.902,106.085,51.666,106.886,51.343z M103.322,26.276c76.862-0.14,202.637-0.14,279.499,0
				c76.862,0.145,13.977,0.258-139.747,0.258C89.346,26.534,26.461,26.421,103.322,26.276z M583.361,26.287
				c4.301-0.188,11.042-0.188,15.009,0c3.957,0.193,0.452,0.344-7.805,0.344C582.329,26.631,579.077,26.475,583.361,26.287z
				 M642.817,26.282c6.193-0.172,16.321-0.172,22.503,0c6.182,0.177,1.129,0.323-11.246,0.323
				C641.698,26.604,636.634,26.459,642.817,26.282z M773.231-2.973c0-1.371,0.226-1.935,0.495-1.247c0.28,0.688,0.28,1.812,0,2.5
				c-0.269,0.688-0.495,0.124-0.495-1.247V-2.973z M825.149-50.553c0.054-1.167,0.29-1.403,0.602-0.602
				c0.29,0.72,0.258,1.58-0.075,1.914S825.106-49.5,825.149-50.553L825.149-50.553z M684.876-60.654
				c0.731-0.29,1.591-0.253,1.924,0.081c0.333,0.333-0.258,0.57-1.312,0.527C684.317-60.095,684.08-60.337,684.876-60.654z
				 M686.284-114.158c-0.118-15.783,0.118-28.905,0.538-29.158c0.419-0.258,0.634,8.155,0.495,18.691
				C686.833-88.877,686.489-85.388,686.284-114.158z M664.072-163.346c0-0.21,0.785-0.995,1.753-1.753
				c1.58-1.242,1.613-1.209,0.376,0.376C664.9-163.056,664.072-162.524,664.072-163.346L664.072-163.346z M631.936-199.229
				c0.409-0.419,23.675-0.645,51.693-0.5l50.94,0.258l-51.693,0.5C654.428-198.697,631.506-198.81,631.936-199.229z
				 M123.901-307.721c88.737-0.14,233.633-0.14,322.004,0c88.366,0.14,15.767,0.258-161.335,0.258
				C107.472-307.463,35.169-307.581,123.901-307.721z"/>
			<path id="path9384" inkscape:connector-curvature="0" d="M628.066,144.525c-0.677-0.823-1.011-1.5-0.742-1.5
				c0.28,0,1.064,0.677,1.753,1.5c0.677,0.828,1.011,1.5,0.742,1.5C629.539,146.025,628.754,145.353,628.066,144.525z
				 M149.07,144.649c0-0.204,0.79-0.995,1.752-1.747c1.586-1.247,1.623-1.21,0.376,0.376
				C149.892,144.945,149.07,145.472,149.07,144.649L149.07,144.649z M184.479,125.78l-1.908-2.252l2.252,1.903
				c1.236,1.048,2.247,2.064,2.247,2.252C187.07,128.484,186.269,127.893,184.479,125.78z M445.072,107.03l-162.502-0.511
				l162.196-0.247c107.31-0.161,162.4,0.097,162.808,0.758c0.344,0.548,0.473,0.887,0.301,0.753
				C607.702,107.648,534.448,107.309,445.072,107.03L445.072,107.03z M12.274,106.283c4.236-0.183,11.434-0.188,15.998,0
				s1.102,0.339-7.698,0.339s-12.536-0.151-8.3-0.333V106.283z M682.07,104.649c0-0.204,0.785-0.995,1.753-1.747
				c1.591-1.247,1.613-1.209,0.376,0.376C682.898,104.944,682.07,105.471,682.07,104.649z M171.153,97.445
				c0.048-1.167,0.285-1.403,0.602-0.607c0.29,0.726,0.253,1.586-0.081,1.919C171.346,99.09,171.11,98.499,171.153,97.445z
				 M258.325,95.526c-0.011-2.199,0.183-3.215,0.435-2.258c0.247,0.957,0.258,2.752,0.016,4
				C258.54,98.509,258.336,97.73,258.325,95.526L258.325,95.526z M116.267,94.526c0.021-1.65,0.247-2.204,0.5-1.231
				c0.253,0.973,0.237,2.322-0.038,3C116.455,96.972,116.246,96.176,116.267,94.526L116.267,94.526z M801.883,92.344
				c0.72-0.29,1.581-0.253,1.924,0.081c0.323,0.333-0.258,0.57-1.322,0.527C801.324,92.903,801.088,92.666,801.883,92.344
				L801.883,92.344z M171.153,90.446c0.048-1.167,0.285-1.403,0.602-0.607c0.29,0.726,0.253,1.586-0.081,1.919
				C171.346,92.091,171.11,91.5,171.153,90.446z M683.07,85.527c-0.688-0.822-1.011-1.5-0.742-1.5s1.064,0.677,1.742,1.5
				c0.688,0.828,1.021,1.5,0.742,1.5C684.543,87.027,683.758,86.355,683.07,85.527z M13.322,82.286
				c4.263-0.188,11.235-0.188,15.498,0c4.263,0.188,0.779,0.339-7.746,0.339S9.06,82.474,13.322,82.286z M341.073,82.286
				c155.234-0.683,266.758-0.688,266.35-0.005c-0.258,0.408-73.453,0.64-162.658,0.505
				C355.555,82.656,308.894,82.431,341.073,82.286L341.073,82.286z M753.319,68.282c8.666-0.167,22.836-0.167,31.502,0
				c8.666,0.167,1.57,0.301-15.751,0.301S744.654,68.449,753.319,68.282L753.319,68.282z M825.547,10.026
				c0-32.722,0.118-46.107,0.28-29.749c0.151,16.364,0.151,43.14,0,59.504C825.665,56.138,825.547,42.753,825.547,10.026z
				 M801.077,38.328c-0.28-16.062-0.161-28.857,0.258-28.437c0.43,0.425,0.645,13.563,0.495,29.201l-0.258,28.437L801.077,38.328z
				 M-61.443-128.474c0-86.35,0.118-121.523,0.263-78.168c0.145,43.355,0.145,114.002,0,156.997
				C-61.324-6.65-61.443-42.124-61.443-128.474z M605.574-127.974c0-85.14,0.333-154.6,0.753-154.342
				c0.409,0.253,0.753,69.707,0.753,154.342c0,84.635-0.344,154.094-0.753,154.347C605.907,26.631,605.574-42.828,605.574-127.974z
				 M-37.44-127.974c0-84.42,0.118-118.959,0.263-76.749c0.145,42.215,0.145,111.288,0,153.503
				C-37.322-9.01-37.44-43.549-37.44-127.974z M801.066-31.271l0.505-16.202l0.28,15.423c0.151,8.483-0.075,15.772-0.505,16.202
				C800.927-15.418,800.797-22.358,801.066-31.271z M713.894-60.724c15.02-0.151,39.318-0.151,54.004,0
				c14.665,0.161,2.365,0.285-27.33,0.285C710.873-60.439,698.864-60.568,713.894-60.724L713.894-60.724z M702.573-84.689
				c38.21-0.699,70.271-0.715,69.841-0.032c-0.258,0.414-19.449,0.651-42.651,0.527C706.551-84.313,694.316-84.538,702.573-84.689
				L702.573-84.689z"/>
			<path id="path9382" inkscape:connector-curvature="0" d="M244.074,126.651c0-0.21,0.785-0.995,1.747-1.752
				c1.586-1.242,1.623-1.21,0.376,0.376C244.891,126.942,244.074,127.474,244.074,126.651L244.074,126.651z M665.072,103.525
				c-0.688-0.823-1.021-1.495-0.753-1.495c0.28,0,1.064,0.672,1.753,1.495c0.677,0.828,1.021,1.505,0.742,1.505
				C666.534,105.03,665.76,104.353,665.072,103.525z M741.149,100.445c0.043-1.167,0.28-1.403,0.602-0.602
				c0.29,0.72,0.258,1.58-0.075,1.914C741.342,102.09,741.106,101.498,741.149,100.445L741.149,100.445z M-12.927,98.526
				c-0.683-0.823-1.021-1.5-0.747-1.5c0.28,0,1.064,0.677,1.747,1.5c0.683,0.828,1.021,1.5,0.747,1.5
				C-11.46,100.025-12.244,99.353-12.927,98.526z M630.323,93.526c-0.011-2.199,0.183-3.215,0.43-2.258
				c0.258,0.951,0.258,2.752,0.021,4C630.538,96.51,630.334,95.73,630.323,93.526L630.323,93.526z M742.933,92.763
				c0.43-0.419,13.783-0.645,29.695-0.5l28.943,0.269l-29.695,0.495C755.534,93.3,742.514,93.182,742.933,92.763L742.933,92.763z
				 M664.072,86.651c0-0.21,0.785-0.995,1.753-1.752c1.58-1.242,1.613-1.204,0.376,0.382
				C664.9,86.946,664.072,87.473,664.072,86.651L664.072,86.651z M-19.932,67.325c-0.274-8.913-0.145-15.853,0.28-15.423
				c0.43,0.43,0.65,7.719,0.5,16.202l-0.28,15.423L-19.932,67.325z M630.538,25.776c-0.269-0.688-0.366-51.424-0.226-112.75
				l0.258-111.497l0.505,112.75c0.269,62.014,0.366,112.75,0.215,112.75S630.796,26.464,630.538,25.776L630.538,25.776z
				 M144.242-28.723c76.819-0.14,202.814-0.14,279.999,0s14.332,0.258-139.671,0.258C130.572-28.464,67.423-28.583,144.242-28.723z
				 M669.071-68.47c-0.688-0.828-1.021-1.5-0.753-1.5c0.279,0,1.075,0.672,1.752,1.5c0.677,0.823,1.021,1.5,0.742,1.5
				C670.534-66.971,669.76-67.648,669.071-68.47z M662.524-120.969c0-20.627,0.14-29.066,0.29-18.75
				c0.172,10.311,0.172,27.185,0,37.495C662.664-91.908,662.524-100.348,662.524-120.969z M663.889-223.721
				c17.783-0.156,46.575-0.156,64.003,0c17.428,0.151,2.881,0.28-32.319,0.28S646.117-223.57,663.889-223.721L663.889-223.721z
				 M630.517-253.47c0-15.95,0.129-22.336,0.301-14.192c0.172,8.15,0.172,21.196,0,29.002
				C630.646-230.854,630.517-237.52,630.517-253.47z M124.82-283.724c88.14-0.14,232.365-0.14,320.504,0
				c88.135,0.145,16.025,0.258-160.25,0.258C108.795-283.466,36.685-283.579,124.82-283.724z"/>
			<path id="path9380" inkscape:connector-curvature="0" d="M89.738,160.4c-24.39-5.236-43.231-22.433-50.252-45.871
				c-0.989-3.301-2.215-6.564-2.725-7.252c-0.683-0.914-5.644-1.258-18.562-1.274c-19.654-0.021-23.304-0.908-29.959-7.284
				c-6.279-6.005-6.617-7.354-7.166-28.19l-0.5-19.003l-11.655-0.634c-10.23-0.559-12.294-0.984-16.869-3.473
				c-2.871-1.564-6.279-4.231-7.58-5.935c-5.704-7.478-5.403,2.14-5.376-170.334c0.022-157.357,0.038-158.658,2.054-163.12
				c2.86-6.316,7.435-10.676,13.66-13.004c5.295-1.984,7.918-2,329.761-2s324.466,0.016,329.767,2
				c6.225,2.328,10.805,6.687,13.654,13.004c1.903,4.209,2.032,6.489,2.054,35.55c0.021,22.793,0.344,31.367,1.226,32.249
				c0.903,0.908,17.03,1.199,66.444,1.199h65.239l2.613,2.252c5.494,4.736,4.892,13.633-1.247,18.697l-3.731,3.07l17.385,52.241
				l17.385,52.241l11.439,11.827c8.795,9.074,12.192,13.375,14.611,18.498l3.161,6.677l0.29,64.734
				c0.28,64.374,0.269,64.761-1.871,69.739c-2.226,5.171-7.999,11.208-12.719,13.321c-1.839,0.823-12.998,1.365-35.2,1.704
				l-32.501,0.5l-1.204,8.542c-2.559,17.976-8.408,30.255-19.783,41.479c-12.794,12.628-28.405,18.912-47.005,18.922
				c-19.815,0.011-33.673-5.542-47.027-18.842c-9.225-9.176-13.525-16.116-17.353-27.921l-2.645-8.182h-162.91H281.731l-2.14,7.005
				c-8.499,27.83-31.104,45.812-60.536,48.161c-19.713,1.57-42.231-7.714-55.192-22.755l-4.548-5.284l-5.822,6.284
				C137.012,157.739,113.106,165.41,89.738,160.4L89.738,160.4z M122.729,133.521c12.386-6.075,22.422-19.557,24.191-32.491
				c3.397-24.846-15.251-48.053-39.968-49.747C88.27,49.999,72.407,59.45,63.763,77.007c-3.005,6.096-3.188,7.128-3.188,17.498
				c0,10.246,0.215,11.483,3.086,17.525C74.627,135.129,100.36,144.493,122.729,133.521z M97.371,105.068
				c-6.268-3.822-8.004-11.214-4.021-17.127c4.059-6.021,11.45-7.73,17.154-3.967c3.87,2.553,5.499,5.677,5.499,10.552
				c0,4.881-1.629,8.004-5.499,10.558C106.752,107.557,101.441,107.551,97.371,105.068L97.371,105.068z M233.694,133.892
				c12.439-6.123,21.997-18.788,24.556-32.534c3.36-18.089-7.752-38.087-25.873-46.57c-9.241-4.322-20.745-4.999-30.26-1.785
				c-21.255,7.187-34.195,28.335-30.093,49.193C177.614,130.613,208.31,146.391,233.694,133.892z M208.837,105.46
				c-5.542-3.005-7.752-12.472-4.182-17.922c5.494-8.381,18.675-6.687,22.309,2.871C230.963,100.912,218.905,110.927,208.837,105.46
				z M691.499,134.645c7.698-3.591,13.138-8.021,18.084-14.729c16.321-22.191,8.042-53.117-17.514-65.288
				c-6.042-2.881-7.257-3.102-17.493-3.102c-10.278,0-11.439,0.21-17.686,3.166c-12.869,6.096-22.438,17.745-25.352,30.851
				c-5.408,24.282,12.504,49.166,37.684,52.354C676.436,138.811,685.36,137.51,691.499,134.645z M666.083,103.272
				c-3.548-3.548-4.01-4.553-4.01-8.746c0-4.193,0.462-5.193,4.01-8.741c3.828-3.838,4.225-3.989,9.096-3.521
				c4,0.382,5.752,1.161,8.236,3.645c2.774,2.774,3.161,3.822,3.161,8.617c0,4.795-0.387,5.849-3.161,8.623
				c-2.484,2.484-4.236,3.258-8.236,3.645C670.308,107.261,669.91,107.105,666.083,103.272z M36.76,81.775
				c0.511-0.683,1.742-3.946,2.742-7.246c2.091-6.929,4.639-12.24,8.762-18.261c2.161-3.156,2.575-4.392,1.591-4.768
				c-0.731-0.28-11.219-0.392-23.309-0.242L4.571,51.526L4.291,65.89C4.103,75.63,4.388,80.7,5.168,81.641
				c1.575,1.898,30.19,2.021,31.593,0.14V81.775z M610.541,73.405c1.699-5.021,4.774-11.676,6.838-14.788
				c2.064-3.118,3.494-6.096,3.172-6.628c-0.355-0.564-9.3-0.962-21.793-0.968c-11.655,0-22.852-0.468-24.89-1.032
				c-6.596-1.833-9.934-8.214-7.886-15.057c1.989-6.628,4.08-7.332,23.54-7.902l17.052-0.5l0.247-153.896
				c0.193-112.906-0.043-154.256-0.871-155.25c-1.602-1.93-639.568-2.037-642.192-0.108c-1.591,1.172-1.683,11.354-1.441,155.25
				l0.253,154.003l281.547,0.5c263.737,0.468,281.708,0.607,284.159,2.215c1.441,0.941,3.15,3.333,3.806,5.311
				c2.36,7.155-0.925,13.439-8.096,15.498c-2.129,0.607-50.343,0.973-129.097,0.973c-69.137,0-125.926,0.366-126.2,0.812
				c-0.28,0.452,0.392,2.134,1.489,3.752c3.639,5.36,7.698,13.961,9.429,19.992c0.941,3.268,1.908,6.284,2.145,6.698
				c0.242,0.414,73.631,0.64,163.083,0.5l162.642-0.253L610.541,73.405z M0.389-6.924c-4.086-2.489-5.322-4.876-5.295-10.23
				c0.027-4.569,1.898-7.773,5.661-9.703c1.597-0.812,78.571-1.113,284.616-1.113c281.649,0,282.439,0.005,284.993,2.016
				c4.043,3.177,5.268,8.225,3.263,13.472c-3.156,8.268,25.948,7.51-289.207,7.505C8.092-4.978,3.523-5.01,0.389-6.924z
				 M800.97,67.658c0.796-0.973,1.054-9.649,0.86-29.749l-0.258-28.384l-9.999-0.527c-11.009-0.581-13.74-1.591-15.998-5.951
				c-2.903-5.623-1.054-13.557,3.763-16.176c1.226-0.672,6.73-1.473,12.235-1.779l9.999-0.564l0.28-15.799
				c0.301-17.713-0.409-21.766-4.698-26.454l-2.967-3.247l-55.81-0.011l-55.8-0.011l-5.01-2.333
				c-5.462-2.537-10.956-8.112-13.117-13.294c-1.097-2.607-1.376-11.66-1.376-43.602c0-35.646,0.194-40.576,1.634-42.635
				c3.387-4.849,5.72-5.118,43.866-5.118c27.524,0,35.673-0.285,36.039-1.253c0.258-0.683-1.667-7.773-4.279-15.745l-4.763-14.504
				l-51.617-0.258c-42.662-0.215-51.822-0.021-52.757,1.107c-0.828,1.005-1.064,30.975-0.871,113.261l0.247,111.89l28.007,0.586
				c30.813,0.645,34.071,1.161,46.295,7.311c12.751,6.424,22.331,15.874,29.244,28.835l3.075,5.768H768.5
				c25.32,0,31.545-0.263,32.469-1.371V67.658z M772.586-84.995c0.667-1.08-17.052-55.558-18.783-57.74
				c-0.774-0.984-8.375-1.204-34.114-1l-33.114,0.263l-0.269,28.378c-0.183,20.105,0.065,28.781,0.871,29.749
				c0.925,1.124,8.752,1.371,42.963,1.371C757.62-83.974,772.177-84.323,772.586-84.995L772.586-84.995z"/>
		</g>
	</g>
</g>
</svg>
