<?xml version="1.0" encoding="utf-8"?>
<!-- Generator: Adobe Illustrator 16.0.0, SVG Export Plug-In . SVG Version: 6.00 Build 0)  -->
<!DOCTYPE svg PUBLIC "-//W3C//DTD SVG 1.1//EN" "http://www.w3.org/Graphics/SVG/1.1/DTD/svg11.dtd">
<svg version="1.1"
	 id="svg8233" sodipodi:docname="delivery.svg" inkscape:version="0.92.1 r15371" xmlns:dc="http://purl.org/dc/elements/1.1/" xmlns:cc="http://creativecommons.org/ns#" xmlns:rdf="http://www.w3.org/1999/02/22-rdf-syntax-ns#" xmlns:svg="http://www.w3.org/2000/svg" xmlns:sodipodi="http://sodipodi.sourceforge.net/DTD/sodipodi-0.dtd" xmlns:inkscape="http://www.inkscape.org/namespaces/inkscape"
	 xmlns="http://www.w3.org/2000/svg" xmlns:xlink="http://www.w3.org/1999/xlink" x="0px" y="0px" width="80.19px" height="42.75px"
	 viewBox="0 7.25 80.19 42.75" enable-background="new 0 7.25 80.19 42.75" xml:space="preserve">
<sodipodi:namedview  units="px" inkscape:window-maximized="1" inkscape:window-y="-8" inkscape:current-layer="layer1" inkscape:window-x="-8" inkscape:pageshadow="2" inkscape:document-units="mm" inkscape:pageopacity="0.0" inkscape:window-height="1017" inkscape:window-width="1920" showgrid="false" inkscape:cy="9.5332715" inkscape:cx="-67.325034" inkscape:zoom="3.959798" borderopacity="1.0" bordercolor="#666666" pagecolor="#ffffff" id="base">
	</sodipodi:namedview>
<g id="layer1" transform="translate(0,-283.77083)" inkscape:groupmode="layer" inkscape:label="Layer 1">
	<g id="g10050">
		<g id="g9449" transform="translate(-31.750001)">
			<path id="rect8951" inkscape:connector-curvature="0" d="M-88.25,294.031v39.74h63.107v-39.74H-88.25z M-86.154,295.977h58.915
				v35.848h-58.915V295.977z"/>
			<rect id="rect8969" x="-86.152" y="306.558" fill="#CA0421" width="58.907" height="1.877"/>
			<rect id="rect8969-1" x="-79.628" y="313.552" fill="#CA0421" width="12.615" height="1.877"/>
		</g>
	</g>
	<g id="g9171" transform="matrix(0.30497182,0,0,0.30497182,22.59333,232.88172)">
		
			<path id="path8898" sodipodi:nodetypes="cccccccccccccscsccccccccscccccccccccccccccscc" inkscape:connector-curvature="0" fill="#010101" d="
			M-74.083,577.981v-80.732H6.649h80.732v80.732v80.732H6.649h-80.732V577.981z M3.81,617.086v-36.267l-36.109-0.16l-36.109-0.163
			v36.165c0,19.892,0.192,36.36,0.426,36.591c0.235,0.237,16.483,0.352,36.109,0.263l35.683-0.16V617.086z M81.553,616.922
			l0.16-36.428l-36.112,0.163l-36.114,0.16l-0.165,35.637c-0.09,19.6-0.027,35.995,0.141,36.431c0.24,0.628,7.8,0.759,36.114,0.628
			l35.81-0.16L81.553,616.922z M3.81,538.877v-36.267h-35.95h-35.952l-0.162,36.431l-0.163,36.431l36.114-0.167l36.114-0.16V538.877
			z M81.553,539.037l-0.167-36.428H45.438H9.488l-0.165,35.637c-0.09,19.6-0.027,35.989,0.138,36.424
			c0.237,0.618,8.079,0.788,36.279,0.788h35.974L81.553,539.037z"/>
		<rect id="rect8969-1-3" x="27.096" y="533.407" width="37.825" height="6.155"/>
		<g id="g9128" transform="translate(-26.513547,-0.39514122)">
			<rect id="rect8969-1-3-9" x="53.61" y="603.673" fill="#CA0421" width="37.825" height="6.155"/>
			<rect id="rect8969-1-3-9-8" x="53.61" y="620.504" fill="#CA0421" width="37.825" height="6.155"/>
		</g>
		<g id="g9098" transform="translate(-41.426776,11.893487)">
			<rect id="rect8969-1-3-0" x="-10.472" y="521.514" width="37.828" height="6.155"/>
			<rect id="rect8969-1-3-0-2" x="5.366" y="505.676" width="6.155" height="37.83"/>
		</g>
		<g id="g9158" transform="translate(-0.26726953,0.26726953)">
			
				<rect id="rect8969-1-3-0-4" x="-50.622" y="612.942" transform="matrix(-0.7071 -0.7071 0.7071 -0.7071 -489.7302 1029.1741)" width="37.83" height="6.152"/>
			
				<rect id="rect8969-1-3-0-2-1" x="-50.62" y="612.945" transform="matrix(0.7072 -0.707 0.707 0.7072 -444.8383 157.9709)" width="37.825" height="6.152"/>
		</g>
	</g>
	<g id="g9348" transform="matrix(0.31307129,0,0,0.31307129,-68.690898,171.02517)">
		<g id="g9365" transform="matrix(0.59751121,0,0,0.59751121,158.61466,165.98262)">
			<path id="path9358" inkscape:connector-curvature="0" fill="#D0D0D0" d="M-38.073,55.173c0-0.209,0.788-0.995,1.749-1.752
				c1.587-1.242,1.624-1.208,0.378,0.379C-37.251,55.465-38.073,55.995-38.073,55.173z M-188.668,16.299l-1.905-2.25l2.25,1.906
				c2.114,1.791,2.707,2.595,1.905,2.595C-186.609,18.549-187.622,17.536-188.668,16.299z M-178.073,13.049
				c-0.684-0.825-1.021-1.498-0.744-1.498c0.274,0,1.06,0.673,1.744,1.498s1.021,1.501,0.747,1.501
				C-176.604,14.55-177.389,13.874-178.073,13.049z M-23.074,8.05c1.292-1.376,2.574-2.501,2.85-2.501
				c0.274,0-0.559,1.125-1.848,2.501c-1.292,1.376-2.574,2.501-2.85,2.501C-25.196,10.551-24.364,9.426-23.074,8.05z M-189.668,0.3
				l-1.905-2.25l2.25,1.905c2.114,1.788,2.707,2.595,1.905,2.595C-187.609,2.55-188.621,1.538-189.668,0.3z M-30.072-2.949
				c-0.686-0.825-1.021-1.501-0.747-1.501c0.277,0,1.062,0.676,1.746,1.501c0.684,0.825,1.021,1.498,0.744,1.498
				C-28.603-1.451-29.389-2.125-30.072-2.949z M-193.573-17.449c2.709-2.751,5.15-5.001,5.424-5.001c0.277,0-1.715,2.25-4.424,5.001
				c-2.709,2.749-5.15,4.999-5.424,4.999C-198.274-12.451-196.282-14.701-193.573-17.449z M-41.667-15.7l-1.905-2.25l2.25,1.905
				c2.114,1.791,2.704,2.595,1.905,2.595C-39.608-13.45-40.62-14.463-41.667-15.7z M-181.072-14.575c0-0.277,1.35-1.793,2.999-3.375
				c1.65-1.582,2.999-2.649,2.999-2.373c0,0.274-1.35,1.791-2.999,3.372C-179.723-15.369-181.072-14.301-181.072-14.575z
				 M-32.148-21.2l-2.425-2.751l2.749,2.425c2.571,2.266,3.211,3.075,2.425,3.075C-29.579-18.452-30.816-19.689-32.148-21.2
				L-32.148-21.2z M-32.993-50.033c0.047-1.167,0.285-1.402,0.603-0.606c0.29,0.723,0.253,1.584-0.078,1.916
				C-32.8-48.388-33.038-48.978-32.993-50.033z M-186.914-51.45c0-1.376,0.224-1.937,0.504-1.25c0.277,0.689,0.277,1.811,0,2.501
				C-186.69-49.514-186.914-50.075-186.914-51.45z M-185.074-57.827c0-0.209,0.788-0.997,1.751-1.751
				c1.584-1.242,1.621-1.209,0.376,0.378C-184.252-57.535-185.074-57.005-185.074-57.827z M-84.261-91.134
				c0.723-0.287,1.584-0.253,1.919,0.078c0.332,0.334-0.261,0.569-1.313,0.527C-84.822-90.578-85.057-90.815-84.261-91.134z"/>
			<path id="path9356" inkscape:connector-curvature="0" fill="#999999" d="M-47.203,129.278c0.425-0.423,9.966-0.647,21.2-0.499
				l20.43,0.274l-21.203,0.499C-38.436,129.826-47.629,129.703-47.203,129.278L-47.203,129.278z M-204.768,128.803
				c5.941-0.177,15.393-0.175,20.999,0.003s0.747,0.321-10.804,0.321S-210.712,128.98-204.768,128.803L-204.768,128.803z
				 M-205.076,118.8c0-0.412,5.513-0.634,12.252-0.491c22.323,0.475,24.481,0.854,6.001,1.047
				C-196.862,119.463-205.074,119.213-205.076,118.8z M-45.572,118.868c14.57-0.72,30.503-0.757,30.501-0.068
				c0,0.412-8.214,0.663-18.251,0.556C-43.361,119.252-48.874,119.03-45.572,118.868z M-136.26,85.867
				c0.72-0.29,1.584-0.253,1.916,0.078s-0.258,0.569-1.313,0.525C-136.821,86.423-137.059,86.185-136.26,85.867z M-111.261,64.867
				c0.723-0.29,1.584-0.253,1.919,0.078c0.331,0.331-0.258,0.569-1.313,0.525C-111.823,65.423-112.058,65.186-111.261,64.867z
				 M-33.993,45.967c0.047-1.164,0.285-1.402,0.603-0.606c0.29,0.723,0.253,1.584-0.078,1.919
				C-33.802,47.611-34.037,47.021-33.993,45.967z M-42.072,13.049c1.289-1.376,2.574-2.498,2.848-2.498
				c0.274,0-0.556,1.122-1.848,2.498c-1.292,1.376-2.574,2.501-2.85,2.501C-44.196,15.549-43.364,14.424-42.072,13.049z
				 M-27.572,12.55c0.995-1.102,2.033-1.999,2.31-1.999c0.274,0-0.316,0.898-1.31,1.999c-0.997,1.099-2.036,1.999-2.31,1.999
				C-29.159,14.55-28.569,13.649-27.572,12.55z M-181.072,10.05c-0.686-0.825-1.021-1.501-0.747-1.501
				c0.277,0,1.062,0.676,1.746,1.501c0.684,0.825,1.021,1.501,0.744,1.501C-179.603,11.551-180.389,10.875-181.072,10.05z
				 M-197.073,7.05c-0.684-0.825-1.021-1.501-0.744-1.501c0.274,0,1.06,0.676,1.744,1.501c0.684,0.825,1.021,1.498,0.744,1.498
				C-195.604,8.549-196.389,7.875-197.073,7.05z M-22.072-9.95c-0.686-0.825-1.021-1.501-0.747-1.501
				c0.277,0,1.06,0.676,1.746,1.501c0.684,0.825,1.018,1.498,0.744,1.498C-20.602-8.452-21.388-9.125-22.072-9.95z M-183.573-12.451
				c0.995-1.099,2.036-1.999,2.31-1.999c0.274,0-0.316,0.901-1.31,1.999c-0.995,1.102-2.036,1.999-2.31,1.999
				S-184.568-11.349-183.573-12.451L-183.573-12.451z M-38.073-11.95c-0.684-0.825-1.021-1.501-0.744-1.501
				c0.274,0,1.06,0.676,1.744,1.501c0.684,0.825,1.021,1.498,0.744,1.498C-36.603-10.451-37.389-11.125-38.073-11.95z
				 M-186.572-24.45c0.995-1.102,2.033-1.999,2.31-1.999c0.274,0-0.316,0.898-1.31,1.999c-0.997,1.099-2.036,1.999-2.31,1.999
				C-188.159-22.451-187.569-23.351-186.572-24.45z M-173.915-26.449c0-1.376,0.227-1.939,0.504-1.25
				c0.279,0.686,0.279,1.812,0,2.501C-173.688-24.513-173.915-25.076-173.915-26.449z"/>
			<path id="path9354" inkscape:connector-curvature="0" fill="#616161" d="M-218.994,123.966c0.047-1.164,0.285-1.402,0.603-0.603
				c0.29,0.72,0.253,1.584-0.078,1.916C-218.801,125.61-219.039,125.021-218.994,123.966z M-1.994,123.966
				c0.047-1.164,0.285-1.402,0.603-0.603c0.29,0.72,0.253,1.584-0.078,1.916C-1.801,125.61-2.038,125.021-1.994,123.966z
				 M-143.073,83.05c-0.686-0.825-1.021-1.501-0.747-1.501c0.277,0,1.062,0.676,1.746,1.501s1.021,1.498,0.744,1.498
				C-141.603,84.549-142.389,83.875-143.073,83.05z M-33.074,18.05c1.866-1.926,3.618-3.5,3.894-3.5c0.274,0-1.028,1.574-2.892,3.5
				c-1.866,1.924-3.618,3.5-3.894,3.5c-0.274,0,1.028-1.577,2.895-3.5H-33.074z M-193.67,10.3l-1.903-2.25l2.25,1.906
				c2.114,1.791,2.704,2.595,1.903,2.595C-191.607,12.55-192.62,11.537-193.67,10.3z M-39.073,10.488
				c0-0.277,2.699-3.174,5.998-6.439c3.302-3.265,6.001-5.711,6.001-5.437c0,0.277-2.699,3.174-6.001,6.437
				C-36.374,8.316-39.073,10.762-39.073,10.488z M-184.669,6.299l-1.903-2.25l2.25,1.905c2.114,1.791,2.704,2.595,1.903,2.595
				C-182.607,8.549-183.62,7.539-184.669,6.299z M-189.073-6.951c1.866-1.924,3.618-3.5,3.892-3.5s-1.026,1.577-2.892,3.5
				c-1.866,1.926-3.618,3.5-3.892,3.5C-192.242-3.451-190.939-5.025-189.073-6.951z M-34.669-8.7l-1.903-2.25l2.25,1.905
				c2.114,1.788,2.704,2.595,1.903,2.595C-32.607-6.45-33.62-7.462-34.669-8.7z M-26.635-14.701l-2.939-3.25l3.25,2.937
				c3.03,2.738,3.712,3.563,2.939,3.563C-23.557-11.451-25.022-12.913-26.635-14.701L-26.635-14.701z M-183.993-28.034
				c0.047-1.164,0.285-1.402,0.603-0.603c0.29,0.72,0.253,1.584-0.078,1.916C-183.8-26.389-184.038-26.979-183.993-28.034z
				 M-174.993-34.032c0.047-1.167,0.285-1.404,0.603-0.606c0.29,0.72,0.253,1.584-0.078,1.916
				C-174.803-32.388-175.038-32.98-174.993-34.032z M-184.993-37.034c0.047-1.164,0.285-1.402,0.603-0.603
				c0.29,0.72,0.253,1.584-0.078,1.916C-184.803-35.39-185.037-35.979-184.993-37.034z M-175.993-42.033
				c0.047-1.167,0.285-1.402,0.603-0.606c0.29,0.723,0.253,1.584-0.078,1.919C-175.802-40.388-176.037-40.981-175.993-42.033z
				 M-149.074-57.827c0-0.209,0.788-0.997,1.751-1.751c1.584-1.242,1.621-1.209,0.376,0.378
				C-148.251-57.535-149.074-57.005-149.074-57.827z M-110.324-70.114c0.689-0.277,1.814-0.277,2.501,0
				c0.689,0.279,0.125,0.506-1.25,0.506C-110.447-69.607-111.011-69.834-110.324-70.114z M-78.072-87.949
				c-0.686-0.825-1.021-1.501-0.747-1.501c0.277,0,1.06,0.676,1.746,1.501c0.684,0.825,1.021,1.498,0.744,1.498
				C-76.603-86.451-77.388-87.125-78.072-87.949z"/>
			<path id="path9352" inkscape:connector-curvature="0" fill="#CA0421" d="M-122.574,47.136
				c-17.781-4.417-32.328-18.995-36.966-37.047c-8.893-34.601,20.657-67.796,55.851-62.742c32.216,4.628,52.262,37.29,41.346,67.363
				C-71.304,39.399-97.325,53.411-122.574,47.136z M-92.7,33.21c24.111-11.916,29.9-42.283,11.793-61.852
				c-10.365-11.201-23.693-15.534-37.869-12.307c-27.515,6.259-40.14,37.971-24.288,61.012c7.959,11.569,20.352,17.703,34.68,17.16
				C-101.303,36.956-99.181,36.413-92.7,33.21z"/>
			<path id="path9350" inkscape:connector-curvature="0" fill="#010101" d="M-72.272,163.3c-0.869-0.687-9.345-14.75-18.838-31.25
				c-9.491-16.499-17.757-30.55-18.368-31.224c-0.84-0.924-5.596,6.432-19.522,30.208c-10.125,17.288-19.073,31.686-19.882,31.996
				c-3.365,1.292-5.495-1.235-14.782-17.538l-9.65-16.943h-21.18c-22.263,0-23.578-0.253-23.578-4.537
				c0-1.175,8.486-17.162,18.859-35.531l18.859-33.393l-2.803-2.618c-1.54-1.438-3.046-3.699-3.346-5.02
				c-0.303-1.321,0.261-7.802,1.248-14.401l1.796-12.002l-8.781-9.723c-12.889-14.275-12.884-15.677,0.133-29.13l8.88-9.183
				l-1.545-12.861c-1.415-11.777-1.407-13.15,0.073-16.257c1.976-4.142,3.537-4.766,18.256-7.283
				c6.398-1.096,11.725-2.12,11.84-2.276c0.112-0.159,2.866-5.184,6.118-11.167c5.769-10.613,9.46-14.607,13.516-14.617
				c0.88,0,6.643,2.472,12.808,5.497c6.163,3.025,11.798,5.5,12.524,5.5c0.723,0,6.21-2.242,12.19-4.986
				c5.983-2.741,12.078-4.991,13.547-4.999c4.223-0.023,7.912,3.975,13.764,14.936c2.989,5.596,6.139,10.54,7.001,10.987
				c0.859,0.446,6.168,1.608,11.796,2.587c5.625,0.976,11.6,2.608,13.273,3.626c4.886,2.97,5.328,5.583,3.365,19.974l-1.736,12.72
				l8.663,9.574c4.764,5.265,8.945,10.699,9.29,12.078c1.149,4.568-0.619,7.716-9.478,16.901l-8.778,9.102l1.42,11.895
				c1.566,13.156,1.125,18.042-1.801,19.869c-1.073,0.671-1.95,1.644-1.95,2.167c0,0.522,8.324,15.628,18.499,33.57
				s18.501,33.552,18.501,34.688c0,3.905-1.885,4.263-23.978,4.542l-21.323,0.271l-8.877,15.998
				c-7.951,14.328-11.597,19.501-13.743,19.501C-70.377,164.55-71.403,163.986-72.272,163.3L-72.272,163.3z M-60.61,133.551
				c3.203-5.776,6.505-11.289,7.335-12.25c1.336-1.548,3.628-1.751,19.856-1.751c10.091,0,18.345-0.287,18.345-0.64
				s-7.737-14.288-17.191-30.971c-14.855-26.204-17.473-30.271-19.251-29.9c-1.133,0.238-4.62,0.927-7.752,1.532l-5.696,1.099
				l-5.967,10.705c-9.663,17.337-10.726,17.721-26.951,9.739c-10.462-5.147-14.192-6.455-14.192-4.98
				c0,0.65,5.317,9.963,27.243,47.739l14.991,25.823l1.702-2.822C-67.203,145.32-63.815,139.325-60.61,133.551z M-132.652,118.27
				l16.591-28.778l-2.052-4.02c-1.128-2.211-2.623-4.242-3.325-4.508c-0.7-0.271-3.717,0.647-6.703,2.039
				c-10.478,4.876-13.675,3.01-21.931-12.811c-5.889-11.281-5.688-11.117-15.124-12.226l-5.539-0.653l-17.168,30.435
				c-9.444,16.74-17.17,30.743-17.17,31.119c0,0.376,8.256,0.681,18.345,0.681c16.236,0,18.517,0.201,19.84,1.749
				c0.82,0.963,4.782,7.512,8.804,14.549c4.022,7.04,7.656,12.44,8.079,12.002C-149.585,147.409-141.775,134.099-132.652,118.27
				L-132.652,118.27z M-112.846,66.212c3.461-0.987,4.526-0.686,14.998,4.223c6.202,2.905,11.725,5.463,12.273,5.685
				c0.551,0.219,3.701-4.597,7.001-10.705s6.959-11.743,8.134-12.524c1.172-0.78,7.444-2.326,13.939-3.438
				c6.494-1.112,12.093-2.198,12.446-2.414c0.35-0.217,0.057-4.803-0.653-10.193c-2.414-18.298-2.733-17.183,8.097-28.209
				l9.465-9.632l-8.974-9.841c-4.933-5.414-9.191-10.804-9.457-11.978c-0.269-1.175,0.339-7.669,1.347-14.429
				c1.008-6.758,1.522-12.482,1.138-12.72c-0.384-0.237-6.272-1.618-13.09-3.07c-6.813-1.451-13.145-3.305-14.067-4.116
				c-0.924-0.814-4.239-6.39-7.371-12.391c-3.13-6.001-6.024-10.911-6.432-10.911c-0.41,0-5.549,2.25-11.422,4.999
				c-6.392,2.994-12.078,5.001-14.155,5.001c-2.216,0-7.434-1.984-14.385-5.471l-10.911-5.471l-5.706,10.42
				c-3.138,5.732-6.747,11.399-8.019,12.594c-1.741,1.637-5.416,2.722-14.886,4.404c-6.915,1.224-12.735,2.407-12.931,2.626
				c-0.198,0.219,0.24,5.124,0.971,10.898c2.305,18.214,2.712,16.76-7.677,27.496c-5.004,5.174-8.94,9.864-8.75,10.423
				c0.193,0.556,3.834,4.819,8.094,9.467c4.26,4.651,8.191,9.627,8.734,11.054c0.705,1.856,0.454,6.246-0.88,15.33
				c-1.028,7.001-1.806,12.806-1.731,12.9c0.076,0.091,5.761,1.156,12.634,2.365c6.875,1.206,13.461,2.796,14.641,3.532
				c1.177,0.736,4.897,6.515,8.267,12.845l6.129,11.506l9.731-4.597C-120.953,69.344-114.898,66.799-112.846,66.212z"/>
		</g>
	</g>
	<g id="g9465">
		<path id="path9188" inkscape:connector-curvature="0" fill="#CA0421" d="M28.264,306.892c-1.718-1.739-3.123-3.353-3.123-3.585
			c0-0.554,0.72-1.263,1.283-1.263c0.244,0,1.616,1.168,3.049,2.596l2.606,2.596l4.892-4.866c4.805-4.779,5.521-5.298,6.273-4.545
			c0.782,0.781,0.264,1.478-5.088,6.824c-4.198,4.195-5.562,5.404-6.089,5.404C31.553,310.054,30.626,309.284,28.264,306.892
			L28.264,306.892z"/>
		<g id="g9378" transform="matrix(0.09083111,0,0,0.09083111,-6.8810255,266.61085)">
			<path id="path9388" inkscape:connector-curvature="0" d="M234.001,738.814c0.677-0.28,2.027-0.301,3-0.043
				s0.419,0.473-1.231,0.495C234.119,739.287,233.324,739.083,234.001,738.814L234.001,738.814z M345.079,738.782
				c0.726-0.29,1.586-0.247,1.919,0.075c0.333,0.344-0.258,0.581-1.312,0.538C344.52,739.341,344.284,739.104,345.079,738.782z
				 M354.998,738.814c0.677-0.28,2.032-0.301,3.005-0.043c0.968,0.258,0.414,0.473-1.231,0.495
				C355.121,739.287,354.326,739.083,354.998,738.814L354.998,738.814z M805.004,738.814c0.667-0.28,2.021-0.301,2.989-0.043
				c0.978,0.258,0.43,0.473-1.226,0.495C805.122,739.287,804.316,739.083,805.004,738.814L805.004,738.814z M814.014,738.803
				c0.688-0.28,1.817-0.28,2.505,0s0.129,0.505-1.247,0.505C813.895,739.309,813.325,739.083,814.014,738.803L814.014,738.803z
				 M194.672,721.214l-1.903-2.247l2.247,1.903c2.118,1.795,2.709,2.591,1.908,2.591
				C196.737,723.461,195.721,722.451,194.672,721.214z M302.676,718.214l-1.908-2.247l2.252,1.903
				c1.236,1.054,2.247,2.064,2.247,2.247C305.267,720.924,304.466,720.333,302.676,718.214z M859.772,718.473
				c0.989-1.107,2.032-2,2.301-2c0.28,0-0.301,0.892-1.301,2c-1,1.097-2.032,2-2.312,2S858.772,719.569,859.772,718.473z
				 M190.27,716.967c-0.688-0.828-1.021-1.505-0.747-1.505c0.274,0,1.059,0.677,1.747,1.505c0.683,0.817,1.021,1.505,0.742,1.505
				C191.737,718.473,190.952,717.784,190.27,716.967z M236.017,713.806c0.688-0.28,1.817-0.28,2.5,0
				c0.688,0.28,0.129,0.495-1.247,0.495S235.329,714.086,236.017,713.806z M243.016,713.806c0.688-0.28,1.817-0.28,2.505,0
				c0.683,0.28,0.124,0.495-1.253,0.495c-1.376,0-1.935-0.215-1.247-0.495H243.016z M348.02,713.806c0.688-0.28,1.812-0.28,2.5,0
				c0.688,0.28,0.124,0.495-1.253,0.495C347.896,714.301,347.332,714.086,348.02,713.806L348.02,713.806z M354.019,713.806
				c0.688-0.28,1.812-0.28,2.5,0s0.124,0.495-1.247,0.495C353.896,714.301,353.331,714.086,354.019,713.806L354.019,713.806z
				 M807.025,713.806c0.688-0.28,1.806-0.28,2.494,0c0.688,0.28,0.129,0.495-1.247,0.495S806.337,714.086,807.025,713.806
				L807.025,713.806z M814.078,713.785c0.731-0.29,1.591-0.258,1.914,0.075c0.344,0.333-0.258,0.57-1.312,0.527
				C813.519,714.344,813.282,714.107,814.078,713.785L814.078,713.785z M210.267,701.969c-0.683-0.828-1.016-1.494-0.742-1.494
				c0.274,0,1.059,0.667,1.742,1.494c0.688,0.828,1.021,1.494,0.747,1.494C211.74,703.464,210.955,702.797,210.267,701.969z
				 M768.341,675.886c0.054-1.172,0.29-1.408,0.613-0.613c0.29,0.731,0.247,1.591-0.075,1.925
				C768.535,677.531,768.298,676.94,768.341,675.886z M283.35,674.886c0.048-1.161,0.285-1.398,0.602-0.602
				c0.29,0.71,0.253,1.58-0.081,1.914C283.538,676.521,283.302,675.94,283.35,674.886z M197.543,670.467
				c0-2.473,0.194-3.494,0.43-2.247c0.242,1.236,0.242,3.258,0,4.494C197.737,673.962,197.543,672.94,197.543,670.467z
				 M824.464,670.973c0.021-1.656,0.247-2.215,0.495-1.236c0.258,0.978,0.237,2.322-0.032,3
				C824.657,673.413,824.442,672.618,824.464,670.973L824.464,670.973z M879.35,671.887c0.054-1.172,0.29-1.408,0.602-0.613
				c0.29,0.731,0.247,1.591-0.075,1.924C879.543,673.532,879.307,672.94,879.35,671.887z M227.346,670.887
				c0.048-1.161,0.285-1.398,0.607-0.602c0.285,0.71,0.253,1.58-0.081,1.914C227.54,672.521,227.303,671.94,227.346,670.887z
				 M854.353,670.887c0.043-1.161,0.28-1.398,0.602-0.602c0.28,0.71,0.258,1.58-0.086,1.914
				C854.546,672.521,854.31,671.94,854.353,670.887z M283.35,667.876c0.048-1.161,0.285-1.398,0.602-0.602
				c0.29,0.731,0.253,1.591-0.081,1.924C283.538,669.532,283.302,668.941,283.35,667.876z M350.079,657.792
				c0.726-0.301,1.586-0.258,1.919,0.065c0.333,0.344-0.258,0.581-1.312,0.538C349.52,658.34,349.283,658.103,350.079,657.792z
				 M270.674,640.224l-1.903-2.258l2.247,1.914c1.236,1.043,2.252,2.054,2.252,2.236
				C273.271,642.922,272.464,642.331,270.674,640.224z M735.27,628.462l-22.503-0.559l22.191-0.215
				c13.966-0.14,22.417,0.151,22.804,0.774c0.344,0.559,0.484,0.903,0.323,0.785C757.913,629.128,747.645,628.773,735.27,628.462
				L735.27,628.462z M104.016,627.731c2.338-0.204,6.166-0.204,8.504,0c2.333,0.215,0.425,0.387-4.252,0.387
				C103.592,628.118,101.683,627.946,104.016,627.731z M154.075,627.72c6.22-0.183,16.116-0.183,21.997,0
				c5.886,0.183,0.796,0.323-11.305,0.323C152.667,628.032,147.855,627.903,154.075,627.72L154.075,627.72z M239.001,627.817
				c0.677-0.28,2.027-0.301,3-0.043c0.973,0.258,0.419,0.473-1.231,0.495C239.119,628.29,238.323,628.085,239.001,627.817
				L239.001,627.817z M350.52,627.774c0.962-0.247,2.537-0.247,3.5,0c0.962,0.258,0.177,0.462-1.753,0.462
				C350.342,628.236,349.557,628.032,350.52,627.774z M470.022,627.709c34.786-0.14,91.71-0.14,126.491,0
				c34.792,0.151,6.333,0.279-63.24,0.279C463.695,627.989,435.23,627.86,470.022,627.709z M810.53,627.752
				c1.527-0.237,3.774-0.226,5.01,0.011c1.226,0.247-0.021,0.43-2.774,0.419C810.014,628.182,809.014,627.989,810.53,627.752
				L810.53,627.752z M858.707,622.215l-2.935-3.247l3.247,2.935c1.785,1.613,3.247,3.075,3.247,3.247
				C862.266,625.924,861.449,625.247,858.707,622.215z M701.468,614.969c0.021-1.645,0.237-2.204,0.495-1.236
				c0.258,0.978,0.237,2.322-0.043,3.01C701.65,617.409,701.446,616.614,701.468,614.969L701.468,614.969z M814.003,602.809
				c0.677-0.269,2.032-0.29,3-0.032c0.968,0.247,0.419,0.473-1.226,0.495C814.121,603.293,813.325,603.088,814.003,602.809
				L814.003,602.809z M925.022,585.735c2.333-0.215,6.161-0.215,8.504,0c2.333,0.215,0.419,0.387-4.258,0.387
				S922.689,585.951,925.022,585.735z M281.436,571.716c76.819-0.14,202.82-0.14,280.005,0c77.174,0.151,14.321,0.258-139.672,0.258
				C267.771,571.974,204.617,571.855,281.436,571.716z M912.271,566.082c0-0.194,0.785-0.989,1.752-1.742
				c1.581-1.247,1.613-1.204,0.376,0.376C913.099,566.383,912.271,566.91,912.271,566.082L912.271,566.082z M925.022,560.728
				c2.333-0.204,6.161-0.204,8.504,0c2.333,0.215,0.419,0.387-4.258,0.387C924.603,561.115,922.689,560.943,925.022,560.728z
				 M841.58,432.716c9.246-0.161,24.105-0.161,33.007,0.005c8.902,0.161,1.333,0.301-16.815,0.296
				c-18.148,0-25.438-0.134-16.192-0.296V432.716z M845.214,407.724c26.75-0.215,35.673-0.586,36.329-1.521
				c0.645-0.903,0.763-0.833,0.462,0.263c-0.344,1.296-5.247,1.505-36.318,1.521l-35.91,0.016L845.214,407.724L845.214,407.724z
				 M903.272,355.967c-0.688-0.828-1.021-1.5-0.753-1.5c0.28,0,1.064,0.672,1.753,1.5c0.677,0.823,1.021,1.5,0.742,1.5
				C904.734,357.467,903.96,356.789,903.272,355.967z M758.267,274.966c-0.677-0.823-1.021-1.5-0.742-1.5s1.054,0.677,1.742,1.5
				c0.688,0.828,1.021,1.5,0.753,1.5C759.74,276.465,758.956,275.793,758.267,274.966z M98.082,268.784
				c0.72-0.29,1.586-0.253,1.914,0.081c0.333,0.328-0.258,0.564-1.312,0.521C97.523,269.337,97.286,269.101,98.082,268.784z
				 M744.086,268.784c0.72-0.29,1.58-0.253,1.914,0.081c0.333,0.328-0.258,0.564-1.312,0.521
				C743.527,269.337,743.291,269.101,744.086,268.784z"/>
			<path id="path9386" inkscape:connector-curvature="0" d="M240.017,738.76c1.242-0.237,3.263-0.237,4.505,0
				c1.236,0.237,0.22,0.441-2.252,0.441C239.796,739.201,238.78,738.997,240.017,738.76z M349.031,738.76
				c1.242-0.247,3.043-0.226,4,0.011c0.957,0.258-0.059,0.452-2.263,0.441C348.568,739.201,347.789,738.997,349.031,738.76
				L349.031,738.76z M810.014,738.803c0.688-0.269,1.817-0.269,2.505,0c0.688,0.28,0.118,0.505-1.247,0.505
				C809.896,739.309,809.326,739.083,810.014,738.803z M840.268,703.087c0-0.204,0.796-1,1.753-1.753
				c1.58-1.236,1.623-1.204,0.376,0.387C841.086,703.378,840.268,703.915,840.268,703.087L840.268,703.087z M240.081,683.788
				c0.72-0.301,1.586-0.258,1.919,0.075c0.328,0.333-0.258,0.57-1.317,0.527C239.522,684.348,239.285,684.111,240.081,683.788
				L240.081,683.788z M811.089,683.788c0.71-0.301,1.57-0.258,1.914,0.075c0.323,0.333-0.258,0.57-1.312,0.527
				C810.519,684.348,810.283,684.111,811.089,683.788L811.089,683.788z M140.082,682.778c0.72-0.28,1.586-0.247,1.914,0.086
				c0.333,0.333-0.258,0.57-1.312,0.527C139.523,683.337,139.281,683.1,140.082,682.778z M854.353,673.886
				c0.043-1.172,0.28-1.408,0.602-0.613c0.28,0.731,0.258,1.591-0.086,1.924C854.546,675.531,854.31,674.94,854.353,673.886z
				 M308.428,670.467c0-1.376,0.226-1.935,0.505-1.258c0.274,0.688,0.274,1.828,0,2.505
				C308.654,672.403,308.428,671.844,308.428,670.467z M854.353,667.876c0.043-1.161,0.28-1.398,0.602-0.602
				c0.28,0.731,0.258,1.591-0.086,1.924C854.546,669.532,854.31,668.941,854.353,667.876z M811.089,657.792
				c0.71-0.301,1.57-0.258,1.914,0.065c0.323,0.344-0.258,0.581-1.312,0.538C810.519,658.34,810.283,658.103,811.089,657.792z
				 M141.453,643.277c-0.102-8.085,0.156-14.901,0.564-15.16c0.414-0.258,0.634,4.107,0.489,9.698
				C142.028,656.19,141.641,658.2,141.453,643.277z M236.082,627.784c0.72-0.29,1.586-0.247,1.914,0.075
				c0.333,0.333-0.258,0.57-1.312,0.527C235.522,628.333,235.286,628.096,236.082,627.784z M244.081,627.784
				c0.72-0.29,1.586-0.247,1.919,0.075c0.328,0.333-0.258,0.57-1.312,0.527C243.522,628.333,243.285,628.096,244.081,627.784z
				 M240.516,602.723c76.867-0.151,202.637-0.151,279.505,0c76.857,0.129,13.971,0.258-139.752,0.258
				S163.655,602.852,240.516,602.723z M720.562,602.723c4.29-0.194,11.042-0.183,15.009,0c3.956,0.194,0.452,0.344-7.806,0.344
				C719.519,603.067,716.283,602.916,720.562,602.723z M780.018,602.723c6.193-0.172,16.321-0.172,22.503,0
				s1.129,0.323-11.257,0.323C778.899,603.045,773.825,602.895,780.018,602.723z M910.432,573.468c0-1.376,0.215-1.935,0.495-1.247
				c0.28,0.677,0.28,1.817,0,2.505C910.647,575.403,910.432,574.844,910.432,573.468L910.432,573.468z M962.351,525.882
				c0.054-1.161,0.29-1.398,0.602-0.602c0.29,0.72,0.247,1.581-0.075,1.924C962.544,527.527,962.308,526.947,962.351,525.882
				L962.351,525.882z M822.077,515.787c0.731-0.29,1.591-0.258,1.924,0.075c0.333,0.333-0.269,0.57-1.322,0.527
				C821.518,516.346,821.281,516.109,822.077,515.787z M823.475,462.277c-0.108-15.778,0.129-28.9,0.538-29.158
				c0.419-0.253,0.645,8.155,0.495,18.691C824.034,487.553,823.69,491.058,823.475,462.277z M801.262,413.089
				c0-0.204,0.796-0.995,1.763-1.747c1.58-1.247,1.613-1.21,0.366,0.376C802.09,413.385,801.262,413.912,801.262,413.089
				L801.262,413.089z M769.126,377.212c0.419-0.419,23.685-0.645,51.704-0.5l50.94,0.258l-51.704,0.5
				C791.629,377.744,768.707,377.626,769.126,377.212z M261.1,268.719c88.732-0.145,233.634-0.145,321.994,0
				c88.377,0.14,15.772,0.253-161.325,0.253C244.667,268.972,172.369,268.859,261.1,268.719z"/>
			<path id="path9384" inkscape:connector-curvature="0" d="M765.267,720.967c-0.688-0.817-1.011-1.505-0.742-1.505
				s1.064,0.688,1.753,1.505c0.677,0.828,1.011,1.505,0.731,1.505C766.74,722.472,765.955,721.795,765.267,720.967z
				 M286.269,721.096c0-0.215,0.785-1,1.753-1.763c1.586-1.236,1.618-1.204,0.376,0.387
				C287.092,721.375,286.269,721.913,286.269,721.096L286.269,721.096z M321.674,702.216l-1.903-2.247l2.247,1.903
				c1.236,1.054,2.252,2.064,2.252,2.247C324.27,704.926,323.464,704.324,321.674,702.216z M582.267,683.466l-162.497-0.505
				l162.185-0.247c107.321-0.161,162.411,0.086,162.82,0.753c0.333,0.559,0.473,0.892,0.301,0.753
				c-0.172-0.129-73.432-0.473-162.798-0.753H582.267z M149.473,682.724c4.236-0.183,11.434-0.183,15.998,0s1.097,0.333-7.703,0.333
				C148.968,683.057,145.237,682.907,149.473,682.724L149.473,682.724z M819.271,681.09c0-0.204,0.785-1,1.752-1.752
				c1.581-1.247,1.613-1.204,0.376,0.387C820.099,681.38,819.271,681.918,819.271,681.09z M308.347,673.886
				c0.048-1.172,0.285-1.408,0.607-0.613c0.285,0.731,0.253,1.591-0.081,1.924C308.541,675.531,308.304,674.94,308.347,673.886z
				 M395.52,671.962c-0.011-2.193,0.188-3.215,0.435-2.258c0.253,0.957,0.258,2.752,0.021,4
				C395.735,674.951,395.531,674.166,395.52,671.962L395.52,671.962z M253.467,670.973c0.016-1.656,0.242-2.215,0.495-1.236
				c0.253,0.978,0.237,2.322-0.038,3c-0.274,0.677-0.478-0.118-0.462-1.763H253.467z M939.085,668.779
				c0.72-0.28,1.58-0.247,1.914,0.086c0.333,0.323-0.258,0.559-1.312,0.516C938.515,669.339,938.279,669.102,939.085,668.779
				L939.085,668.779z M308.347,666.887c0.048-1.161,0.285-1.398,0.607-0.602c0.285,0.71,0.253,1.58-0.081,1.914
				C308.541,668.521,308.304,667.941,308.347,666.887z M820.271,661.963c-0.688-0.817-1.021-1.494-0.753-1.494
				c0.28,0,1.064,0.677,1.753,1.494c0.677,0.828,1.021,1.505,0.742,1.505S820.959,662.791,820.271,661.963z M150.516,658.716
				c4.263-0.183,11.241-0.183,15.504,0c4.263,0.194,0.774,0.344-7.752,0.344S146.259,658.91,150.516,658.716z M478.268,658.727
				c155.229-0.677,266.764-0.688,266.345-0.011c-0.247,0.409-73.443,0.645-162.658,0.516
				C492.756,659.092,446.094,658.867,478.268,658.727L478.268,658.727z M890.521,644.718c8.666-0.172,22.836-0.172,31.502,0
				s1.57,0.301-15.751,0.301S881.855,644.89,890.521,644.718L890.521,644.718z M962.738,586.467c0-32.727,0.129-46.113,0.28-29.749
				c0.161,16.364,0.161,43.135,0,59.498C962.867,632.579,962.738,619.194,962.738,586.467z M938.268,614.764
				c-0.269-16.063-0.151-28.857,0.269-28.427c0.419,0.409,0.645,13.558,0.495,29.201l-0.258,28.427L938.268,614.764z
				 M75.756,447.967c0-86.35,0.118-121.529,0.263-78.174c0.145,43.36,0.145,114.008,0,157.003
				C75.875,569.791,75.756,534.322,75.756,447.967z M742.775,448.467c0-85.146,0.333-154.6,0.753-154.347
				c0.409,0.258,0.742,69.712,0.742,154.347c0,84.63-0.333,154.084-0.742,154.342C743.108,603.067,742.775,533.613,742.775,448.467z
				 M99.753,448.467c0-84.426,0.118-118.964,0.263-76.749c0.145,42.21,0.145,111.288,0,153.498
				C99.872,567.437,99.753,532.892,99.753,448.467z M938.268,545.17l0.495-16.202l0.279,15.418
				c0.161,8.494-0.075,15.783-0.495,16.213C938.117,561.029,937.999,554.083,938.268,545.17z M851.084,515.722
				c15.031-0.161,39.329-0.161,54.004,0c14.676,0.151,2.376,0.28-27.319,0.28S836.065,515.873,851.084,515.722L851.084,515.722z
				 M839.774,491.747c38.211-0.699,70.271-0.71,69.841-0.021c-0.258,0.409-19.449,0.645-42.662,0.516
				C843.752,492.123,831.517,491.897,839.774,491.747L839.774,491.747z"/>
			<path id="path9382" inkscape:connector-curvature="0" d="M381.269,703.087c0-0.204,0.79-1,1.753-1.753
				c1.586-1.236,1.618-1.204,0.376,0.387C382.091,703.378,381.269,703.915,381.269,703.087L381.269,703.087z M802.273,679.961
				c-0.688-0.817-1.021-1.494-0.753-1.494c0.28,0,1.064,0.677,1.742,1.494c0.688,0.839,1.032,1.505,0.753,1.505
				S802.961,680.8,802.273,679.961z M878.35,676.886c0.043-1.161,0.28-1.398,0.602-0.602c0.29,0.72,0.258,1.58-0.086,1.914
				C878.544,678.531,878.307,677.94,878.35,676.886L878.35,676.886z M124.267,674.972c-0.683-0.828-1.016-1.505-0.742-1.505
				c0.274,0,1.059,0.677,1.742,1.505c0.688,0.817,1.021,1.494,0.747,1.494C125.74,676.467,124.955,675.789,124.267,674.972z
				 M767.524,669.962c-0.021-2.193,0.183-3.215,0.43-2.258c0.258,0.957,0.258,2.752,0.022,4
				C767.739,672.951,767.524,672.166,767.524,669.962L767.524,669.962z M880.135,669.199c0.419-0.419,13.783-0.645,29.695-0.495
				l28.943,0.269l-29.706,0.495C892.735,669.747,879.705,669.618,880.135,669.199L880.135,669.199z M801.262,663.092
				c0-0.204,0.796-1,1.763-1.753c1.58-1.247,1.613-1.204,0.366,0.376C802.09,663.382,801.262,663.92,801.262,663.092
				L801.262,663.092z M117.268,643.772c-0.274-8.924-0.151-15.858,0.28-15.428c0.425,0.419,0.65,7.719,0.495,16.202l-0.28,15.417
				L117.268,643.772z M767.729,602.217c-0.258-0.688-0.355-51.424-0.215-112.75l0.258-111.503l0.505,112.75
				c0.269,62.014,0.366,112.75,0.215,112.75S767.997,602.906,767.729,602.217L767.729,602.217z M281.436,547.718
				c76.819-0.151,202.82-0.151,280.005,0c77.174,0.14,14.321,0.258-139.672,0.258C267.771,547.976,204.617,547.858,281.436,547.718z
				 M806.273,507.96c-0.688-0.817-1.021-1.494-0.753-1.494c0.28,0,1.064,0.677,1.753,1.494c0.677,0.839,1.021,1.505,0.742,1.505
				S806.961,508.798,806.273,507.96z M799.725,455.466c0-20.627,0.129-29.061,0.29-18.75c0.172,10.316,0.172,27.19,0,37.506
				C799.854,484.522,799.725,476.092,799.725,455.466z M801.09,352.72c17.783-0.156,46.575-0.156,64.003,0
				c17.428,0.151,2.871,0.274-32.33,0.274c-35.2,0-49.457-0.124-31.674-0.28V352.72z M767.718,322.965
				c0-15.95,0.129-22.336,0.301-14.187c0.172,8.144,0.172,21.196,0,28.997C767.847,345.581,767.718,338.915,767.718,322.965z
				 M262.019,292.716c88.135-0.14,232.365-0.14,320.495,0c88.14,0.14,16.03,0.258-160.245,0.258S173.879,292.856,262.019,292.716z"
				/>
			<path id="path9380" inkscape:connector-curvature="0" d="M226.937,736.836c-24.39-5.225-43.237-22.427-50.258-45.866
				c-0.984-3.301-2.215-6.558-2.725-7.246c-0.683-0.925-5.639-1.269-18.557-1.279c-19.654-0.021-23.309-0.914-29.964-7.279
				c-6.273-6.01-6.617-7.354-7.166-28.201l-0.5-18.998l-11.655-0.634c-10.23-0.559-12.289-0.978-16.869-3.473
				c-2.871-1.57-6.279-4.236-7.574-5.935c-5.709-7.483-5.403,2.129-5.381-170.335c0.021-157.358,0.038-158.659,2.059-163.126
				c2.854-6.316,7.429-10.671,13.66-12.998c5.295-1.984,7.918-2,329.762-2s324.467,0.016,329.757,2
				c6.236,2.328,10.816,6.682,13.665,12.998c1.903,4.215,2.032,6.494,2.053,35.55c0.022,22.793,0.344,31.373,1.226,32.254
				c0.903,0.909,17.03,1.199,66.444,1.199h65.24l2.613,2.247c5.494,4.736,4.892,13.638-1.247,18.702l-3.731,3.07l17.385,52.241
				l17.385,52.236l11.44,11.827c8.784,9.074,12.181,13.375,14.611,18.503l3.161,6.677l0.29,64.734
				c0.28,64.369,0.269,64.756-1.871,69.744c-2.226,5.161-7.999,11.203-12.73,13.31c-1.828,0.828-12.988,1.365-35.189,1.709
				l-32.502,0.505l-1.215,8.537c-2.548,17.976-8.397,30.255-19.772,41.479c-12.794,12.622-28.405,18.901-47.005,18.922
				c-19.826,0-33.673-5.548-47.037-18.847c-9.214-9.171-13.525-16.116-17.342-27.921l-2.645-8.171H581.837H418.931l-2.14,6.988
				c-8.499,27.835-31.104,45.823-60.536,48.166c-19.718,1.57-42.237-7.709-55.192-22.75l-4.553-5.29l-5.817,6.29
				C274.211,734.18,250.306,741.846,226.937,736.836L226.937,736.836z M259.928,709.957c12.38-6.075,22.422-19.546,24.191-32.491
				c3.397-24.836-15.251-48.059-39.974-49.747c-18.681-1.279-34.544,8.171-43.188,25.728c-3,6.096-3.188,7.128-3.188,17.503
				c0,10.235,0.22,11.472,3.086,17.514C211.826,711.57,237.554,720.924,259.928,709.957z M234.566,681.509
				c-6.268-3.828-7.999-11.224-4.016-17.127c4.053-6.021,11.445-7.73,17.154-3.967c3.871,2.548,5.494,5.677,5.494,10.558
				c0,4.881-1.623,7.999-5.494,10.547C243.946,684.003,238.64,683.993,234.566,681.509L234.566,681.509z M370.888,710.334
				c12.439-6.118,22.003-18.783,24.556-32.534c3.365-18.095-7.746-38.092-25.873-46.564c-9.235-4.322-20.745-5.01-30.255-1.785
				c-21.261,7.182-34.2,28.33-30.093,49.188C314.814,707.055,345.51,722.827,370.888,710.334z M346.031,681.896
				c-5.542-3-7.746-12.472-4.177-17.912c5.494-8.386,18.67-6.687,22.309,2.86C368.163,677.359,356.1,687.358,346.031,681.896z
				 M828.7,711.076c7.698-3.58,13.138-8.021,18.073-14.719c16.331-22.191,8.053-53.123-17.503-65.293
				c-6.053-2.881-7.268-3.096-17.493-3.096c-10.278,0-11.45,0.215-17.686,3.161c-12.869,6.096-22.438,17.751-25.363,30.857
				c-5.397,24.277,12.515,49.166,37.695,52.359C813.626,715.247,822.561,713.946,828.7,711.076z M803.284,679.714
				c-3.548-3.559-4.021-4.548-4.021-8.741c0-4.193,0.473-5.204,4.021-8.752c3.828-3.828,4.215-3.989,9.085-3.516
				c4.01,0.376,5.752,1.15,8.246,3.645c2.774,2.774,3.161,3.828,3.161,8.623c0,4.795-0.387,5.838-3.161,8.612
				c-2.494,2.484-4.236,3.258-8.246,3.645C807.498,683.702,807.111,683.552,803.284,679.714z M173.954,658.222
				c0.511-0.688,1.747-3.957,2.742-7.257c2.091-6.935,4.639-12.235,8.762-18.256c2.161-3.15,2.575-4.397,1.591-4.774
				c-0.731-0.28-11.219-0.387-23.304-0.237l-21.976,0.269l-0.28,14.364c-0.188,9.741,0.091,14.815,0.871,15.751
				C143.936,659.985,172.551,660.103,173.954,658.222L173.954,658.222z M747.742,649.835c1.699-5.01,4.774-11.665,6.838-14.783
				c2.064-3.107,3.494-6.096,3.161-6.623c-0.344-0.57-9.289-0.968-21.782-0.968c-11.655-0.011-22.858-0.462-24.9-1.032
				c-6.58-1.839-9.934-8.214-7.881-15.063c1.989-6.623,4.086-7.332,23.546-7.902l17.041-0.505l0.258-153.885
				c0.193-112.911-0.043-154.256-0.871-155.251c-1.602-1.935-639.575-2.037-642.199-0.107c-1.586,1.167-1.683,11.354-1.441,155.251
				l0.258,153.993l281.542,0.505c263.743,0.473,281.709,0.613,284.16,2.215c1.441,0.946,3.161,3.344,3.806,5.322
				c2.365,7.15-0.925,13.439-8.085,15.482c-2.14,0.624-50.349,0.989-129.108,0.989c-69.132,0-125.921,0.365-126.2,0.806
				c-0.274,0.441,0.398,2.14,1.494,3.752c3.639,5.354,7.698,13.955,9.429,19.987c0.935,3.279,1.903,6.29,2.145,6.698
				c0.242,0.419,73.626,0.645,163.078,0.505l162.637-0.247L747.742,649.835z M137.582,569.522c-4.086-2.494-5.317-4.881-5.29-10.235
				c0.022-4.569,1.892-7.784,5.661-9.698c1.591-0.817,78.571-1.118,284.617-1.118c281.65,0,282.434,0,284.993,2.01
				c4.042,3.182,5.268,8.225,3.258,13.472c-3.15,8.268,25.954,7.515-289.203,7.504C145.291,571.458,140.716,571.436,137.582,569.522
				z M938.171,644.094c0.796-0.968,1.054-9.644,0.86-29.749l-0.258-28.373l-9.999-0.538c-11.009-0.581-13.74-1.591-15.998-5.946
				c-2.903-5.623-1.064-13.557,3.752-16.181c1.236-0.667,6.741-1.462,12.246-1.785l9.999-0.559l0.28-15.794
				c0.301-17.708-0.419-21.772-4.698-26.459l-2.978-3.247l-55.8-0.011l-55.8-0.011l-5.01-2.333
				c-5.462-2.537-10.956-8.107-13.117-13.289c-1.097-2.613-1.376-11.665-1.376-43.602c0-35.646,0.183-40.581,1.634-42.635
				c3.387-4.849,5.709-5.118,43.866-5.118c27.524,0,35.673-0.285,36.039-1.253c0.258-0.688-1.677-7.773-4.279-15.751l-4.763-14.498
				l-51.618-0.258c-42.662-0.215-51.822-0.021-52.757,1.107c-0.828,1.005-1.064,30.975-0.882,113.255l0.258,111.89l27.997,0.591
				c30.824,0.645,34.071,1.15,46.296,7.311c12.751,6.419,22.341,15.88,29.255,28.835l3.075,5.773h31.308
				c25.32,0,31.545-0.269,32.459-1.376H938.171z M909.787,491.445c0.667-1.075-17.052-55.558-18.783-57.741
				c-0.785-0.984-8.375-1.204-34.114-1l-33.114,0.263l-0.28,28.378c-0.183,20.1,0.075,28.776,0.882,29.755
				c0.925,1.118,8.752,1.365,42.963,1.365C894.821,492.467,909.368,492.112,909.787,491.445L909.787,491.445z"/>
		</g>
	</g>
</g>
</svg>
