<?xml version="1.0" encoding="utf-8"?>
<!-- Generator: Adobe Illustrator 16.0.0, SVG Export Plug-In . SVG Version: 6.00 Build 0)  -->
<!DOCTYPE svg PUBLIC "-//W3C//DTD SVG 1.1//EN" "http://www.w3.org/Graphics/SVG/1.1/DTD/svg11.dtd">
<svg version="1.1"
	 id="svg8233" sodipodi:docname="garant.svg" inkscape:version="0.92.1 r15371" xmlns:dc="http://purl.org/dc/elements/1.1/" xmlns:cc="http://creativecommons.org/ns#" xmlns:rdf="http://www.w3.org/1999/02/22-rdf-syntax-ns#" xmlns:svg="http://www.w3.org/2000/svg" xmlns:sodipodi="http://sodipodi.sourceforge.net/DTD/sodipodi-0.dtd" xmlns:inkscape="http://www.inkscape.org/namespaces/inkscape"
	 xmlns="http://www.w3.org/2000/svg" xmlns:xlink="http://www.w3.org/1999/xlink" x="0px" y="0px" width="40.667px"
	 height="48.167px" viewBox="0 1.833 40.667 48.167" enable-background="new 0 1.833 40.667 48.167" xml:space="preserve">
<sodipodi:namedview  units="px" inkscape:window-maximized="1" inkscape:window-y="-8" inkscape:current-layer="layer1" inkscape:window-x="-8" inkscape:pageshadow="2" inkscape:document-units="mm" inkscape:pageopacity="0.0" inkscape:window-height="1017" inkscape:window-width="1920" showgrid="false" inkscape:cy="32.736475" inkscape:cx="-136.48487" inkscape:zoom="2.8" borderopacity="1.0" bordercolor="#666666" pagecolor="#ffffff" id="base">
	</sodipodi:namedview>
<g id="layer1" transform="translate(0,-283.77083)" inkscape:groupmode="layer" inkscape:label="Layer 1">
	<path id="rect8951" inkscape:connector-curvature="0" d="M-140.446,366.385v39.74h63.107v-39.74H-140.446z M-138.351,368.331
		h58.916v35.848h-58.916V368.331z"/>
	<rect id="rect8969" x="-138.349" y="378.912" fill="#CA0421" width="58.907" height="1.877"/>
	<rect id="rect8969-1" x="-131.824" y="385.907" fill="#CA0421" width="12.615" height="1.877"/>
	<g id="g9171" transform="matrix(0.30497182,0,0,0.30497182,22.59333,232.88172)">
		
			<path id="path8898" sodipodi:nodetypes="cccccccccccccscsccccccccscccccccccccccccccscc" inkscape:connector-curvature="0" fill="#010101" d="
			M-74.083,577.981v-80.732H6.649h80.732v80.732v80.732H6.649h-80.732V577.981z M3.81,617.086v-36.267l-36.109-0.16l-36.109-0.163
			v36.165c0,19.892,0.192,36.36,0.426,36.591c0.235,0.237,16.483,0.352,36.109,0.263l35.683-0.16V617.086z M81.553,616.922
			l0.16-36.428l-36.112,0.163l-36.114,0.16l-0.165,35.637c-0.09,19.6-0.027,35.995,0.141,36.431c0.24,0.628,7.8,0.759,36.114,0.628
			l35.81-0.16L81.553,616.922z M3.81,538.877v-36.267h-35.95h-35.952l-0.162,36.431l-0.163,36.431l36.114-0.167l36.114-0.16V538.877
			z M81.553,539.037l-0.167-36.428H45.438H9.488l-0.165,35.637c-0.09,19.6-0.027,35.989,0.138,36.424
			c0.237,0.618,8.079,0.788,36.279,0.788h35.974L81.553,539.037z"/>
		<rect id="rect8969-1-3" x="27.096" y="533.407" width="37.825" height="6.155"/>
		<g id="g9128" transform="translate(-26.513547,-0.39514122)">
			<rect id="rect8969-1-3-9" x="53.61" y="603.673" fill="#CA0421" width="37.825" height="6.155"/>
			<rect id="rect8969-1-3-9-8" x="53.61" y="620.504" fill="#CA0421" width="37.825" height="6.155"/>
		</g>
		<g id="g9098" transform="translate(-41.426776,11.893487)">
			<rect id="rect8969-1-3-0" x="-10.472" y="521.514" width="37.828" height="6.155"/>
			<rect id="rect8969-1-3-0-2" x="5.366" y="505.676" width="6.155" height="37.83"/>
		</g>
		<g id="g9158" transform="translate(-0.26726953,0.26726953)">
			
				<rect id="rect8969-1-3-0-4" x="-50.622" y="612.942" transform="matrix(-0.7071 -0.7071 0.7071 -0.7071 -489.7302 1029.1741)" width="37.83" height="6.152"/>
			
				<rect id="rect8969-1-3-0-2-1" x="-50.62" y="612.945" transform="matrix(0.7072 -0.707 0.707 0.7072 -444.8383 157.9709)" width="37.825" height="6.152"/>
		</g>
	</g>
	<g id="g9348" transform="matrix(0.31307129,0,0,0.31307129,-52.815897,192.19185)">
		<g id="g9365" transform="matrix(0.59751121,0,0,0.59751121,158.61466,165.98262)">
			<path id="path9358" inkscape:connector-curvature="0" fill="#D0D0D0" d="M197.81,369.681c0-0.209,0.788-0.992,1.749-1.749
				c1.587-1.242,1.624-1.206,0.378,0.381C198.632,369.973,197.81,370.505,197.81,369.681z M47.214,330.809l-1.905-2.25l2.25,1.905
				c2.114,1.791,2.707,2.595,1.905,2.595C49.274,333.059,48.261,332.046,47.214,330.809z M57.809,327.559
				c-0.684-0.825-1.021-1.498-0.744-1.498c0.274,0,1.06,0.673,1.744,1.498s1.021,1.501,0.747,1.501
				C59.279,329.06,58.493,328.384,57.809,327.559z M212.811,322.56c1.289-1.376,2.571-2.501,2.848-2.501
				c0.274,0-0.559,1.125-1.848,2.501c-1.292,1.376-2.574,2.501-2.85,2.501C210.686,325.061,211.519,323.936,212.811,322.56z
				 M46.215,314.811l-1.905-2.25l2.25,1.905c2.114,1.788,2.707,2.595,1.905,2.595C48.274,317.061,47.261,316.048,46.215,314.811z
				 M205.81,311.561c-0.686-0.825-1.021-1.501-0.747-1.501c0.277,0,1.062,0.676,1.746,1.501s1.021,1.498,0.744,1.498
				C207.28,313.059,206.494,312.386,205.81,311.561z M42.31,297.061c2.709-2.751,5.15-5.001,5.424-5.001
				c0.277,0-1.715,2.25-4.424,5.001c-2.709,2.749-5.15,4.999-5.424,4.999C37.609,302.06,39.6,299.81,42.31,297.061z M194.215,298.81
				l-1.905-2.25l2.25,1.905c2.114,1.791,2.704,2.595,1.905,2.595C196.275,301.06,195.262,300.047,194.215,298.81z M54.81,299.935
				c0-0.277,1.349-1.793,2.999-3.375c1.65-1.582,2.999-2.649,2.999-2.373c0,0.274-1.349,1.791-2.999,3.372
				C56.16,299.141,54.81,300.209,54.81,299.935z M203.735,293.31l-2.425-2.751l2.749,2.425c2.571,2.266,3.211,3.075,2.425,3.075
				C206.304,296.059,205.066,294.821,203.735,293.31L203.735,293.31z M202.889,264.477c0.047-1.167,0.285-1.402,0.603-0.606
				c0.29,0.723,0.253,1.584-0.078,1.916C203.083,266.122,202.845,265.532,202.889,264.477z M48.968,263.06
				c0-1.376,0.227-1.937,0.504-1.25c0.277,0.689,0.277,1.811,0,2.501C49.196,264.997,48.968,264.435,48.968,263.06L48.968,263.06z
				 M50.809,256.683c0-0.209,0.788-0.997,1.751-1.751c1.584-1.242,1.621-1.209,0.376,0.379
				C51.631,256.975,50.809,257.505,50.809,256.683L50.809,256.683z M151.622,223.376c0.723-0.287,1.584-0.253,1.919,0.078
				c0.331,0.334-0.261,0.569-1.313,0.527C151.06,223.932,150.825,223.695,151.622,223.376z"/>
			<path id="path9356" inkscape:connector-curvature="0" fill="#999999" d="M188.679,443.791c0.425-0.428,9.966-0.647,21.2-0.501
				l20.43,0.271l-21.203,0.501C197.447,444.334,188.254,444.214,188.679,443.791z M31.114,443.31
				c5.941-0.177,15.393-0.172,20.999,0.005c5.607,0.177,0.747,0.318-10.804,0.318S25.171,443.488,31.114,443.31L31.114,443.31z
				 M30.806,433.308c0-0.407,5.513-0.632,12.252-0.491c22.323,0.48,24.481,0.856,6.001,1.049
				C39.021,433.976,30.809,433.726,30.806,433.308z M190.311,433.381c14.57-0.72,30.503-0.762,30.501-0.073
				c0,0.418-8.214,0.668-18.251,0.559C192.521,433.762,187.009,433.538,190.311,433.381z M99.623,400.377
				c0.72-0.292,1.584-0.251,1.916,0.078c0.332,0.329-0.258,0.569-1.313,0.527C99.062,400.93,98.824,400.695,99.623,400.377z
				 M124.621,379.38c0.723-0.292,1.584-0.256,1.919,0.073c0.331,0.334-0.258,0.574-1.313,0.527
				C124.06,379.934,123.825,379.693,124.621,379.38z M201.89,360.477c0.047-1.164,0.285-1.404,0.603-0.606
				c0.29,0.726,0.253,1.582-0.078,1.916C202.08,362.121,201.845,361.531,201.89,360.477L201.89,360.477z M193.811,327.559
				c1.289-1.376,2.574-2.498,2.848-2.498s-0.556,1.122-1.848,2.498s-2.574,2.501-2.85,2.501
				C191.686,330.06,192.519,328.935,193.811,327.559z M208.311,327.06c0.995-1.102,2.033-1.999,2.31-1.999
				c0.274,0-0.316,0.898-1.31,1.999c-0.997,1.099-2.036,1.999-2.31,1.999C206.724,329.06,207.314,328.159,208.311,327.06z
				 M54.81,324.56c-0.686-0.825-1.021-1.501-0.747-1.501c0.277,0,1.062,0.676,1.746,1.501s1.021,1.501,0.744,1.501
				C56.28,326.061,55.494,325.385,54.81,324.56z M38.809,321.561c-0.684-0.825-1.021-1.501-0.744-1.501
				c0.274,0,1.06,0.676,1.744,1.501s1.021,1.498,0.744,1.498C40.279,323.059,39.493,322.385,38.809,321.561z M213.811,304.56
				c-0.686-0.825-1.021-1.501-0.747-1.501c0.277,0,1.06,0.676,1.746,1.501c0.684,0.825,1.018,1.498,0.744,1.498
				C215.28,306.058,214.494,305.385,213.811,304.56z M52.31,302.06c0.995-1.099,2.036-1.999,2.31-1.999
				c0.274,0-0.316,0.901-1.31,1.999c-0.994,1.102-2.036,1.999-2.31,1.999C50.725,304.059,51.315,303.161,52.31,302.06z
				 M197.81,302.561c-0.684-0.825-1.021-1.501-0.744-1.501c0.274,0,1.06,0.676,1.744,1.501s1.021,1.498,0.744,1.498
				C199.279,304.059,198.494,303.386,197.81,302.561z M49.31,290.06c0.995-1.102,2.033-1.999,2.31-1.999
				c0.274,0-0.316,0.898-1.31,1.999c-0.997,1.099-2.036,1.999-2.31,1.999C47.723,292.06,48.313,291.159,49.31,290.06z
				 M61.967,288.061c0-1.376,0.227-1.939,0.504-1.25c0.279,0.686,0.279,1.811,0,2.501C62.195,289.998,61.967,289.434,61.967,288.061
				z"/>
			<path id="path9354" inkscape:connector-curvature="0" fill="#616161" d="M16.889,438.476c0.047-1.164,0.285-1.399,0.603-0.606
				c0.29,0.72,0.253,1.587-0.078,1.921C17.082,440.121,16.844,439.531,16.889,438.476z M233.889,438.476
				c0.047-1.164,0.285-1.399,0.603-0.606c0.29,0.72,0.253,1.587-0.078,1.921C234.082,440.121,233.844,439.531,233.889,438.476z
				 M92.81,397.558c-0.686-0.825-1.021-1.498-0.747-1.498c0.277,0,1.062,0.673,1.746,1.498c0.684,0.825,1.021,1.504,0.744,1.504
				C94.28,399.061,93.494,398.383,92.81,397.558z M202.808,332.56c1.866-1.926,3.618-3.5,3.894-3.5c0.274,0-1.028,1.574-2.892,3.5
				c-1.866,1.924-3.618,3.5-3.894,3.5C199.642,336.061,200.945,334.484,202.808,332.56L202.808,332.56z M42.213,324.81l-1.903-2.25
				l2.25,1.905c2.114,1.791,2.704,2.595,1.903,2.595C44.275,327.06,43.262,326.048,42.213,324.81z M196.81,324.998
				c0-0.277,2.699-3.174,5.998-6.439c3.302-3.265,6.001-5.711,6.001-5.437c0,0.277-2.699,3.174-6.001,6.437
				C199.509,322.827,196.81,325.272,196.81,324.998z M51.213,320.809l-1.903-2.25l2.25,1.905c2.114,1.791,2.704,2.595,1.903,2.595
				C53.275,323.059,52.263,322.049,51.213,320.809z M46.81,307.559c1.866-1.924,3.618-3.5,3.892-3.5c0.274,0-1.026,1.577-2.892,3.5
				c-1.866,1.926-3.618,3.5-3.892,3.5C43.641,311.06,44.943,309.486,46.81,307.559z M201.214,305.81l-1.903-2.25l2.25,1.905
				c2.114,1.788,2.704,2.595,1.903,2.595C203.276,308.06,202.263,307.048,201.214,305.81z M209.248,299.81l-2.939-3.25l3.25,2.937
				c3.031,2.738,3.712,3.563,2.939,3.563C212.325,303.059,210.861,301.598,209.248,299.81L209.248,299.81z M51.889,286.476
				c0.047-1.164,0.285-1.402,0.603-0.603c0.29,0.72,0.253,1.584-0.078,1.916C52.082,288.121,51.845,287.531,51.889,286.476z
				 M60.889,280.475c0.047-1.164,0.285-1.402,0.603-0.603c0.29,0.72,0.253,1.584-0.078,1.916
				C61.083,282.122,60.845,281.53,60.889,280.475z M50.89,277.476c0.047-1.164,0.285-1.402,0.603-0.603
				c0.29,0.72,0.253,1.584-0.078,1.916C51.08,279.121,50.845,278.531,50.89,277.476z M59.89,272.478
				c0.047-1.167,0.285-1.402,0.603-0.606c0.29,0.723,0.253,1.584-0.078,1.916C60.08,274.122,59.845,273.53,59.89,272.478z
				 M86.809,256.683c0-0.209,0.788-0.997,1.751-1.751c1.584-1.242,1.621-1.209,0.376,0.379
				C87.631,256.975,86.809,257.505,86.809,256.683z M125.558,244.397c0.689-0.277,1.814-0.277,2.501,0
				c0.689,0.279,0.125,0.506-1.25,0.506C125.436,244.903,124.872,244.676,125.558,244.397z M157.81,226.561
				c-0.686-0.825-1.021-1.501-0.747-1.501c0.277,0,1.06,0.676,1.746,1.501c0.684,0.825,1.021,1.498,0.744,1.498
				C159.28,228.059,158.494,227.386,157.81,226.561z"/>
			<path id="path9352" inkscape:connector-curvature="0" fill="#CA0421" d="M113.308,361.646
				c-17.781-4.417-32.328-18.995-36.966-37.047c-8.893-34.601,20.657-67.796,55.851-62.742c32.216,4.628,52.265,37.29,41.346,67.363
				C164.579,353.909,138.557,367.921,113.308,361.646z M143.183,347.721c24.111-11.916,29.9-42.283,11.793-61.852
				c-10.365-11.201-23.693-15.534-37.869-12.307c-27.515,6.259-40.14,37.971-24.288,61.012c7.959,11.569,20.352,17.703,34.68,17.16
				C134.579,351.466,136.701,350.923,143.183,347.721z"/>
			<path id="path9350" inkscape:connector-curvature="0" fill="#010101" d="M163.61,477.807c-0.869-0.684-9.345-14.748-18.838-31.25
				c-9.491-16.497-17.757-30.55-18.368-31.219c-0.84-0.929-5.596,6.432-19.522,30.206C96.757,462.835,87.809,477.233,87,477.541
				c-3.365,1.289-5.495-1.237-14.782-17.536l-9.65-16.946h-21.18c-22.263,0-23.578-0.251-23.578-4.537
				c0-1.175,8.486-17.16,18.859-35.531l18.859-33.395l-2.803-2.615c-1.54-1.436-3.046-3.701-3.346-5.017
				c-0.303-1.326,0.261-7.805,1.248-14.403l1.796-12.002l-8.781-9.723c-12.889-14.275-12.884-15.677,0.133-29.13l8.88-9.183
				l-1.545-12.861c-1.415-11.777-1.407-13.15,0.073-16.257c1.976-4.142,3.537-4.766,18.256-7.285
				c6.398-1.094,11.725-2.117,11.84-2.274c0.112-0.159,2.866-5.184,6.118-11.167c5.769-10.613,9.46-14.607,13.516-14.617
				c0.88-0.003,6.643,2.472,12.808,5.497c6.163,3.025,11.798,5.5,12.524,5.5c0.723,0,6.21-2.242,12.19-4.986
				c5.983-2.741,12.078-4.991,13.547-4.999c4.223-0.023,7.912,3.975,13.764,14.936c2.989,5.596,6.139,10.54,7.001,10.987
				c0.859,0.446,6.168,1.608,11.796,2.587c5.625,0.976,11.6,2.608,13.273,3.626c4.886,2.97,5.327,5.583,3.365,19.974l-1.736,12.72
				l8.663,9.574c4.764,5.265,8.945,10.699,9.29,12.078c1.149,4.568-0.619,7.716-9.478,16.901l-8.778,9.102l1.42,11.895
				c1.566,13.156,1.125,18.042-1.801,19.869c-1.073,0.668-1.95,1.644-1.95,2.167s8.324,15.625,18.499,33.573
				C225.484,422,233.81,437.61,233.81,438.748c0,3.905-1.885,4.26-23.978,4.542l-21.323,0.271l-8.877,15.996
				c-7.951,14.33-11.597,19.504-13.743,19.504C165.505,479.06,164.48,478.496,163.61,477.807L163.61,477.807z M175.273,448.061
				c3.203-5.774,6.505-11.287,7.335-12.247c1.336-1.55,3.628-1.754,19.856-1.754c10.091,0,18.345-0.287,18.345-0.637
				c0-0.355-7.737-14.294-17.191-30.973c-14.855-26.202-17.473-30.274-19.251-29.898c-1.133,0.235-4.62,0.924-7.752,1.53
				l-5.696,1.102l-5.967,10.702c-9.663,17.337-10.725,17.718-26.951,9.741c-10.462-5.147-14.192-6.458-14.192-4.98
				c0,0.647,5.317,9.961,27.243,47.736l14.991,25.821l1.702-2.819C168.679,459.828,172.068,453.835,175.273,448.061z
				 M103.23,432.781L119.821,404l-2.052-4.02c-1.128-2.208-2.623-4.239-3.325-4.505c-0.7-0.271-3.717,0.647-6.703,2.041
				c-10.478,4.876-13.675,3.007-21.931-12.811c-5.889-11.287-5.688-11.12-15.124-12.226l-5.539-0.658l-17.168,30.435
				c-9.444,16.742-17.17,30.749-17.17,31.125c0,0.376,8.256,0.679,18.345,0.679c16.236,0,18.517,0.198,19.84,1.749
				c0.82,0.966,4.785,7.512,8.804,14.55c4.022,7.037,7.656,12.44,8.076,12.002C86.298,461.916,94.107,448.609,103.23,432.781
				L103.23,432.781z M123.037,380.722c3.461-0.987,4.526-0.684,14.998,4.223c6.202,2.903,11.725,5.461,12.273,5.685
				c0.551,0.219,3.701-4.599,7.001-10.707c3.299-6.108,6.959-11.741,8.134-12.519c1.172-0.783,7.444-2.328,13.939-3.44
				c6.494-1.112,12.093-2.198,12.446-2.417c0.35-0.214,0.057-4.803-0.653-10.19c-2.414-18.298-2.733-17.183,8.097-28.209
				l9.465-9.632l-8.974-9.841c-4.933-5.414-9.191-10.804-9.457-11.978c-0.269-1.175,0.339-7.669,1.347-14.427
				c1.008-6.761,1.522-12.485,1.138-12.722c-0.384-0.238-6.272-1.618-13.09-3.07c-6.813-1.451-13.145-3.305-14.067-4.116
				c-0.924-0.814-4.239-6.39-7.371-12.391c-3.13-6.001-6.024-10.911-6.432-10.911c-0.41,0-5.549,2.25-11.422,4.999
				c-6.393,2.994-12.078,5.001-14.155,5.001c-2.216,0-7.434-1.986-14.385-5.471l-10.911-5.471l-5.706,10.42
				c-3.138,5.732-6.747,11.399-8.019,12.594c-1.741,1.637-5.416,2.723-14.886,4.404c-6.915,1.224-12.735,2.407-12.931,2.626
				c-0.198,0.219,0.238,5.124,0.971,10.898c2.305,18.214,2.712,16.76-7.677,27.496c-5.004,5.173-8.94,9.864-8.75,10.423
				c0.193,0.556,3.834,4.819,8.094,9.467c4.26,4.651,8.191,9.627,8.734,11.054c0.705,1.856,0.454,6.246-0.88,15.33
				c-1.028,7.003-1.806,12.809-1.731,12.902c0.076,0.089,5.761,1.154,12.634,2.36c6.875,1.211,13.461,2.798,14.641,3.534
				c1.177,0.736,4.897,6.515,8.267,12.848l6.129,11.506l9.731-4.599C114.929,383.854,120.985,381.312,123.037,380.722
				L123.037,380.722z"/>
		</g>
	</g>
	<g id="g9429" transform="matrix(0.30999864,0,0,0.30999864,-21.458976,162.10656)">
		<path id="path9188" inkscape:connector-curvature="0" fill="#CA0421" d="M158.263,212.243
			c-6.902-6.987-12.549-13.469-12.549-14.406c0-2.222,2.893-5.072,5.154-5.072c0.98,0,6.493,4.694,12.251,10.43l10.47,10.43
			l19.653-19.55c19.303-19.202,22.182-21.286,25.206-18.262c3.144,3.141,1.055,5.938-20.445,27.419
			c-16.868,16.854-22.344,21.714-24.463,21.714C171.477,224.948,167.752,221.851,158.263,212.243L158.263,212.243z"/>
		<g id="g9378" transform="matrix(0.29300486,0,0,0.29300486,47.025853,268.83218)">
			<path id="path9388" inkscape:connector-curvature="0" d="M234,91.09c0.677-0.274,2.027-0.29,3-0.043
				c0.973,0.258,0.419,0.479-1.231,0.5c-1.65,0.021-2.446-0.188-1.769-0.462V91.09z M345.078,91.063
				c0.726-0.29,1.586-0.253,1.919,0.075c0.333,0.333-0.258,0.57-1.312,0.527C344.519,91.617,344.283,91.38,345.078,91.063z
				 M354.997,91.09c0.677-0.274,2.032-0.29,3.005-0.043c0.968,0.258,0.414,0.479-1.231,0.5c-1.65,0.021-2.446-0.188-1.774-0.462
				V91.09z M805.001,91.09c0.667-0.274,2.021-0.29,2.989-0.043c0.978,0.258,0.43,0.479-1.226,0.5
				c-1.645,0.021-2.451-0.188-1.763-0.462V91.09z M814.011,91.079c0.688-0.28,1.817-0.28,2.505,0s0.129,0.505-1.247,0.505
				S813.323,91.359,814.011,91.079L814.011,91.079z M194.672,73.49l-1.903-2.247l2.247,1.903c2.118,1.79,2.709,2.596,1.908,2.596
				C196.736,75.742,195.72,74.732,194.672,73.49z M302.675,70.49l-1.908-2.247l2.252,1.903c1.236,1.048,2.247,2.059,2.247,2.252
				C305.266,73.2,304.465,72.608,302.675,70.49z M859.769,70.743c0.989-1.102,2.032-2,2.301-2c0.28,0-0.301,0.898-1.301,2
				c-1,1.097-2.032,2-2.312,2S858.769,71.84,859.769,70.743z M190.269,69.243c-0.688-0.828-1.021-1.5-0.747-1.5
				c0.274,0,1.059,0.672,1.747,1.5c0.683,0.823,1.021,1.5,0.742,1.5C191.737,70.743,190.952,70.066,190.269,69.243z M236.016,66.082
				c0.688-0.28,1.817-0.28,2.5,0c0.688,0.274,0.129,0.5-1.247,0.5S235.328,66.356,236.016,66.082z M243.015,66.082
				c0.688-0.28,1.817-0.28,2.505,0c0.683,0.274,0.124,0.5-1.253,0.5c-1.376,0-1.935-0.226-1.247-0.5H243.015z M348.019,66.082
				c0.688-0.28,1.812-0.28,2.5,0c0.688,0.274,0.124,0.5-1.253,0.5C347.895,66.582,347.331,66.356,348.019,66.082L348.019,66.082z
				 M354.018,66.082c0.688-0.28,1.812-0.28,2.5,0c0.688,0.274,0.124,0.5-1.247,0.5C353.895,66.582,353.33,66.356,354.018,66.082
				L354.018,66.082z M807.023,66.082c0.688-0.28,1.806-0.28,2.494,0c0.688,0.274,0.129,0.5-1.247,0.5S806.335,66.356,807.023,66.082
				L807.023,66.082z M814.076,66.061c0.731-0.29,1.591-0.253,1.914,0.081c0.344,0.328-0.258,0.564-1.312,0.521
				C813.517,66.615,813.28,66.378,814.076,66.061L814.076,66.061z M210.267,54.245c-0.683-0.828-1.016-1.5-0.742-1.5
				s1.059,0.672,1.742,1.5c0.688,0.823,1.021,1.5,0.747,1.5C211.74,55.745,210.955,55.068,210.267,54.245z M768.339,28.162
				c0.054-1.167,0.29-1.403,0.613-0.607c0.29,0.726,0.247,1.586-0.075,1.919C768.533,29.807,768.296,29.216,768.339,28.162z
				 M283.349,27.162c0.048-1.167,0.285-1.403,0.602-0.607c0.29,0.726,0.253,1.586-0.081,1.919
				C283.537,28.807,283.301,28.216,283.349,27.162z M197.542,22.743c0-2.473,0.194-3.489,0.43-2.247c0.242,1.236,0.242,3.258,0,4.5
				C197.736,26.232,197.542,25.216,197.542,22.743z M824.462,23.243c0.021-1.65,0.247-2.204,0.495-1.231
				c0.258,0.973,0.237,2.322-0.032,3S824.44,24.894,824.462,23.243L824.462,23.243z M879.347,24.163
				c0.054-1.167,0.29-1.403,0.602-0.607c0.29,0.726,0.247,1.586-0.075,1.919C879.541,25.808,879.304,25.216,879.347,24.163z
				 M227.345,23.163c0.048-1.167,0.285-1.403,0.607-0.607c0.285,0.726,0.253,1.586-0.081,1.919
				C227.539,24.808,227.302,24.216,227.345,23.163z M854.35,23.163c0.043-1.167,0.28-1.403,0.602-0.607
				c0.28,0.726,0.258,1.586-0.086,1.919C854.544,24.808,854.307,24.216,854.35,23.163z M283.349,20.163
				c0.048-1.167,0.285-1.403,0.602-0.607c0.29,0.72,0.253,1.586-0.081,1.919C283.537,21.803,283.301,21.217,283.349,20.163z
				 M350.078,10.062c0.726-0.29,1.586-0.253,1.919,0.075c0.333,0.333-0.258,0.57-1.312,0.527
				C349.519,10.616,349.282,10.379,350.078,10.062z M270.673-7.506l-1.903-2.252l2.247,1.908c1.236,1.048,2.252,2.059,2.252,2.247
				C273.27-4.802,272.463-5.393,270.673-7.506z M735.268-19.257l-22.503-0.559l22.191-0.22c13.966-0.14,22.417,0.151,22.804,0.779
				c0.344,0.548,0.484,0.903,0.323,0.78C757.91-18.601,747.643-18.95,735.268-19.257L735.268-19.257z M104.016-19.988
				c2.338-0.21,6.166-0.21,8.504,0c2.333,0.21,0.425,0.382-4.252,0.382C103.591-19.606,101.683-19.778,104.016-19.988z
				 M154.074-20.004c6.22-0.177,16.116-0.172,21.997,0c5.886,0.177,0.796,0.323-11.305,0.323S147.855-19.827,154.074-20.004
				L154.074-20.004z M239-19.913c0.677-0.274,2.027-0.29,3-0.038c0.973,0.253,0.419,0.478-1.231,0.5
				C239.118-19.434,238.322-19.639,239-19.913L239-19.913z M350.519-19.945c0.962-0.253,2.537-0.253,3.5,0
				c0.962,0.253,0.177,0.457-1.752,0.457C350.341-19.488,349.556-19.692,350.519-19.945z M470.02-20.004
				c34.786-0.151,91.709-0.151,126.49,0c34.792,0.145,6.333,0.263-63.24,0.263C463.693-19.741,435.229-19.859,470.02-20.004z
				 M810.528-19.972c1.527-0.231,3.774-0.226,5.01,0.016c1.226,0.236-0.021,0.425-2.774,0.414
				C810.012-19.547,809.012-19.741,810.528-19.972L810.528-19.972z M858.705-25.503l-2.935-3.252l3.247,2.935
				c1.785,1.618,3.247,3.08,3.247,3.252C862.263-21.794,861.446-22.477,858.705-25.503z M701.466-32.755
				c0.021-1.65,0.236-2.204,0.495-1.231s0.237,2.322-0.043,3C701.648-30.309,701.444-31.105,701.466-32.755L701.466-32.755z
				 M814-44.91c0.677-0.274,2.032-0.29,3-0.038c0.968,0.253,0.419,0.473-1.226,0.495C814.119-44.431,813.323-44.636,814-44.91
				L814-44.91z M925.019-61.988c2.333-0.21,6.161-0.21,8.504,0c2.333,0.21,0.419,0.382-4.258,0.382S922.686-61.779,925.019-61.988z
				 M281.435-76.008c76.819-0.14,202.82-0.14,280.004,0c77.173,0.145,14.321,0.258-139.671,0.258
				C267.77-75.75,204.617-75.863,281.435-76.008z M912.268-81.631c0-0.21,0.785-1,1.753-1.752c1.58-1.242,1.613-1.21,0.376,0.376
				C913.096-81.341,912.268-80.809,912.268-81.631L912.268-81.631z M925.019-86.991c2.333-0.21,6.161-0.21,8.504,0
				c2.333,0.215,0.419,0.387-4.258,0.387C924.6-86.604,922.686-86.776,925.019-86.991z M841.578-215.002
				c9.246-0.167,24.105-0.167,33.007,0c8.902,0.161,1.333,0.301-16.815,0.301S832.332-214.841,841.578-215.002L841.578-215.002z
				 M845.212-239.999c26.75-0.215,35.673-0.586,36.329-1.521c0.645-0.903,0.763-0.833,0.462,0.263
				c-0.344,1.301-5.247,1.505-36.318,1.521l-35.91,0.016L845.212-239.999L845.212-239.999z M903.269-291.756
				c-0.688-0.823-1.021-1.5-0.753-1.5c0.28,0,1.064,0.677,1.752,1.5c0.677,0.828,1.021,1.5,0.742,1.5
				S903.957-290.928,903.269-291.756z M758.265-372.757c-0.677-0.823-1.021-1.5-0.742-1.5s1.054,0.677,1.742,1.5
				c0.688,0.828,1.021,1.5,0.753,1.5C759.738-371.258,758.953-371.929,758.265-372.757z M98.081-378.939
				c0.72-0.29,1.586-0.253,1.914,0.081c0.333,0.333-0.258,0.57-1.312,0.521C97.522-378.38,97.286-378.617,98.081-378.939z
				 M744.084-378.939c0.72-0.29,1.58-0.253,1.914,0.081s-0.258,0.57-1.312,0.521C743.525-378.38,743.288-378.617,744.084-378.939z"
				/>
			<path id="path9386" inkscape:connector-curvature="0" d="M240.016,91.036c1.242-0.237,3.263-0.237,4.505,0
				c1.236,0.242,0.22,0.435-2.252,0.435C239.795,91.472,238.779,91.278,240.016,91.036z M349.029,91.036
				c1.242-0.242,3.043-0.231,4,0.016c0.957,0.253-0.059,0.446-2.263,0.435C348.567,91.477,347.788,91.273,349.029,91.036
				L349.029,91.036z M810.012,91.079c0.688-0.274,1.817-0.274,2.505,0c0.688,0.28,0.118,0.505-1.247,0.505
				C809.893,91.585,809.323,91.359,810.012,91.079z M840.266,55.363c0-0.204,0.796-0.995,1.753-1.747
				c1.58-1.242,1.623-1.21,0.376,0.376c-1.312,1.667-2.129,2.199-2.129,1.376V55.363z M240.08,36.059
				c0.72-0.285,1.586-0.253,1.919,0.081c0.328,0.333-0.258,0.57-1.317,0.527C239.521,36.618,239.285,36.382,240.08,36.059
				L240.08,36.059z M811.087,36.059c0.71-0.285,1.57-0.253,1.914,0.081c0.323,0.333-0.258,0.57-1.312,0.527
				C810.517,36.618,810.28,36.382,811.087,36.059L811.087,36.059z M140.082,35.059c0.72-0.285,1.586-0.253,1.914,0.081
				c0.333,0.333-0.258,0.57-1.312,0.527C139.522,35.618,139.281,35.382,140.082,35.059z M854.35,26.162
				c0.043-1.167,0.28-1.403,0.602-0.607c0.28,0.726,0.258,1.586-0.086,1.919C854.544,27.807,854.307,27.216,854.35,26.162z
				 M308.427,22.743c0-1.376,0.226-1.935,0.505-1.247c0.274,0.683,0.274,1.812,0,2.5C308.653,24.679,308.427,24.12,308.427,22.743z
				 M854.35,20.163c0.043-1.167,0.28-1.403,0.602-0.607c0.28,0.72,0.258,1.586-0.086,1.919
				C854.544,21.803,854.307,21.217,854.35,20.163z M811.087,10.062c0.71-0.29,1.57-0.253,1.914,0.075
				c0.323,0.333-0.258,0.57-1.312,0.527C810.517,10.616,810.28,10.379,811.087,10.062z M141.452-4.447
				c-0.102-8.08,0.156-14.901,0.564-15.159c0.414-0.253,0.634,4.107,0.489,9.692C142.028,8.471,141.64,10.471,141.452-4.447z
				 M236.081-19.94c0.72-0.29,1.586-0.253,1.914,0.081c0.333,0.328-0.258,0.564-1.312,0.521
				C235.522-19.38,235.285-19.622,236.081-19.94z M244.08-19.94c0.72-0.29,1.586-0.253,1.919,0.081
				c0.328,0.328-0.258,0.564-1.312,0.521C243.521-19.38,243.284-19.622,244.08-19.94z M240.516-45.006
				c76.867-0.14,202.637-0.14,279.504,0c76.856,0.14,13.971,0.258-139.752,0.258S163.654-44.867,240.516-45.006z M720.56-45.001
				c4.29-0.183,11.042-0.183,15.009,0.005c3.957,0.188,0.452,0.344-7.806,0.344C719.517-44.657,716.281-44.808,720.56-45.001z
				 M780.015-45.001c6.193-0.172,16.321-0.172,22.503,0c6.182,0.177,1.129,0.317-11.257,0.317
				C778.897-44.684,773.822-44.824,780.015-45.001z M910.43-74.256c0-1.376,0.215-1.935,0.495-1.247s0.28,1.812,0,2.5
				C910.645-72.315,910.43-72.88,910.43-74.256L910.43-74.256z M962.348-121.836c0.054-1.167,0.29-1.403,0.602-0.607
				c0.29,0.72,0.247,1.586-0.075,1.919C962.542-120.191,962.305-120.782,962.348-121.836L962.348-121.836z M822.075-131.937
				c0.731-0.29,1.591-0.253,1.924,0.081c0.333,0.328-0.269,0.564-1.322,0.521C821.516-131.383,821.279-131.62,822.075-131.937z
				 M823.472-185.447c-0.108-15.778,0.129-28.9,0.537-29.152c0.419-0.258,0.645,8.155,0.495,18.691
				C824.031-160.159,823.687-156.67,823.472-185.447z M801.26-234.634c0-0.204,0.796-0.995,1.763-1.747
				c1.58-1.242,1.613-1.209,0.366,0.376C802.088-234.339,801.26-233.806,801.26-234.634L801.26-234.634z M769.124-270.512
				c0.419-0.419,23.685-0.645,51.703-0.5l50.94,0.258l-51.703,0.5C791.627-269.979,768.705-270.098,769.124-270.512z
				 M261.099-379.004c88.731-0.14,233.633-0.14,321.993,0c88.376,0.14,15.772,0.253-161.325,0.253
				C244.666-378.751,172.368-378.864,261.099-379.004z"/>
			<path id="path9384" inkscape:connector-curvature="0" d="M765.264,73.243c-0.688-0.822-1.011-1.5-0.742-1.5
				s1.064,0.677,1.752,1.5c0.677,0.828,1.011,1.5,0.731,1.5C766.737,74.743,765.952,74.071,765.264,73.243z M286.268,73.366
				c0-0.21,0.785-0.995,1.753-1.752c1.586-1.242,1.618-1.204,0.376,0.382C287.091,73.662,286.268,74.189,286.268,73.366
				L286.268,73.366z M321.673,54.492l-1.903-2.247l2.247,1.903c1.236,1.048,2.252,2.059,2.252,2.252
				C324.269,57.202,323.463,56.61,321.673,54.492z M582.265,35.742l-162.497-0.505l162.185-0.247
				c107.32-0.161,162.411,0.091,162.819,0.753c0.333,0.554,0.473,0.892,0.301,0.758c-0.172-0.134-73.432-0.479-162.798-0.758
				H582.265z M149.473,35c4.236-0.188,11.434-0.188,15.998,0c4.564,0.183,1.097,0.339-7.703,0.339
				C148.968,35.339,145.237,35.188,149.473,35L149.473,35z M819.269,33.366c0-0.21,0.785-0.995,1.752-1.753
				c1.58-1.242,1.613-1.204,0.376,0.382C820.096,33.661,819.269,34.188,819.269,33.366z M308.346,26.162
				c0.048-1.167,0.285-1.403,0.607-0.607c0.285,0.726,0.253,1.586-0.081,1.919C308.54,27.807,308.303,27.216,308.346,26.162z
				 M395.519,24.243c-0.011-2.199,0.188-3.22,0.435-2.263c0.253,0.957,0.258,2.758,0.022,4
				C395.734,27.227,395.529,26.442,395.519,24.243L395.519,24.243z M253.466,23.243c0.016-1.65,0.242-2.204,0.495-1.231
				s0.237,2.322-0.038,3c-0.274,0.677-0.478-0.118-0.462-1.769H253.466z M939.082,21.061c0.72-0.29,1.58-0.253,1.914,0.081
				c0.333,0.328-0.258,0.564-1.312,0.521C938.512,21.615,938.276,21.378,939.082,21.061L939.082,21.061z M308.346,19.163
				c0.048-1.167,0.285-1.403,0.607-0.607c0.285,0.72,0.253,1.586-0.081,1.919C308.54,20.803,308.303,20.217,308.346,19.163z
				 M820.268,14.244c-0.688-0.828-1.021-1.5-0.753-1.5c0.28,0,1.064,0.672,1.752,1.5c0.677,0.823,1.021,1.5,0.742,1.5
				S820.957,15.067,820.268,14.244z M150.516,11.003c4.263-0.188,11.241-0.188,15.504,0c4.263,0.183,0.774,0.339-7.752,0.339
				C149.742,11.342,146.258,11.186,150.516,11.003z M478.267,11.003c155.229-0.683,266.764-0.688,266.344-0.011
				c-0.247,0.414-73.443,0.645-162.658,0.511C492.754,11.368,446.093,11.143,478.267,11.003L478.267,11.003z M890.518-3.006
				c8.666-0.167,22.836-0.167,31.502,0c8.666,0.167,1.57,0.307-15.751,0.307C888.948-2.7,881.852-2.839,890.518-3.006L890.518-3.006
				z M962.735-61.257c0-32.722,0.129-46.113,0.28-29.749c0.161,16.364,0.161,43.14,0,59.498
				C962.864-15.145,962.735-28.53,962.735-61.257z M938.265-32.96c-0.269-16.057-0.151-28.857,0.269-28.432
				s0.645,13.563,0.495,29.201L938.77-3.759L938.265-32.96z M75.756-199.757c0-86.35,0.118-121.528,0.263-78.168
				c0.145,43.355,0.145,114.002,0,156.997C75.874-77.933,75.756-113.407,75.756-199.757z M742.772-199.257
				c0-85.146,0.333-154.6,0.753-154.342c0.409,0.253,0.742,69.707,0.742,154.342s-0.333,154.089-0.742,154.347
				C743.106-44.657,742.772-114.111,742.772-199.257z M99.753-199.257c0-84.425,0.118-118.959,0.263-76.749
				c0.145,42.21,0.145,111.288,0,153.498C99.871-80.293,99.753-114.831,99.753-199.257z M938.265-102.553l0.495-16.202l0.28,15.423
				c0.161,8.483-0.075,15.772-0.495,16.202C938.115-86.7,937.996-93.64,938.265-102.553z M851.082-132.007
				c15.031-0.156,39.329-0.156,54.004,0s2.376,0.285-27.319,0.285C848.072-131.722,836.062-131.851,851.082-132.007L851.082-132.007
				z M839.771-155.977c38.21-0.699,70.271-0.71,69.841-0.027c-0.258,0.414-19.449,0.651-42.661,0.527
				c-23.202-0.124-35.437-0.344-27.18-0.495V-155.977z"/>
			<path id="path9382" inkscape:connector-curvature="0" d="M381.268,55.363c0-0.204,0.79-0.995,1.752-1.747
				c1.586-1.242,1.618-1.21,0.376,0.376c-1.306,1.667-2.129,2.199-2.129,1.376V55.363z M802.271,32.242
				c-0.688-0.823-1.021-1.5-0.753-1.5c0.28,0,1.064,0.677,1.742,1.5c0.688,0.828,1.032,1.5,0.753,1.5S802.959,33.07,802.271,32.242z
				 M878.348,29.162c0.043-1.167,0.279-1.403,0.602-0.607c0.29,0.726,0.258,1.586-0.086,1.919
				C878.541,30.807,878.304,30.216,878.348,29.162L878.348,29.162z M124.266,27.243c-0.683-0.823-1.016-1.5-0.742-1.5
				s1.059,0.677,1.742,1.5c0.688,0.828,1.021,1.5,0.747,1.5C125.739,28.743,124.954,28.071,124.266,27.243z M767.522,22.244
				c-0.021-2.199,0.183-3.22,0.43-2.263c0.258,0.957,0.258,2.758,0.021,4C767.737,25.227,767.522,24.442,767.522,22.244
				L767.522,22.244z M880.132,21.48c0.419-0.425,13.783-0.65,29.695-0.5l28.943,0.263l-29.706,0.5
				c-16.331,0.274-29.362,0.156-28.932-0.269V21.48z M801.26,15.368c0-0.21,0.796-1,1.763-1.752c1.58-1.242,1.613-1.209,0.366,0.376
				C802.088,15.658,801.26,16.19,801.26,15.368L801.26,15.368z M117.267-3.958c-0.274-8.913-0.151-15.853,0.28-15.423
				c0.425,0.43,0.65,7.719,0.495,16.202l-0.28,15.423L117.267-3.958z M767.726-45.506c-0.258-0.688-0.355-51.424-0.215-112.75
				l0.258-111.497l0.505,112.75c0.269,62.009,0.366,112.75,0.215,112.75S767.995-44.818,767.726-45.506L767.726-45.506z
				 M281.435-100.005c76.819-0.14,202.82-0.14,280.004,0c77.173,0.14,14.321,0.258-139.671,0.258
				C267.77-99.747,204.617-99.865,281.435-100.005z M806.27-139.759c-0.688-0.823-1.021-1.5-0.753-1.5c0.28,0,1.064,0.677,1.752,1.5
				c0.677,0.828,1.021,1.5,0.742,1.5S806.958-138.931,806.27-139.759z M799.723-192.258c0-20.621,0.129-29.061,0.29-18.75
				c0.172,10.316,0.172,27.19,0,37.501C799.852-163.191,799.723-171.631,799.723-192.258z M801.088-295.003
				c17.783-0.156,46.575-0.156,64.003,0c17.428,0.151,2.871,0.28-32.329,0.274C797.562-294.729,783.305-294.853,801.088-295.003
				L801.088-295.003z M767.716-324.758c0-15.95,0.129-22.331,0.301-14.187c0.172,8.144,0.172,21.196,0,29.002
				C767.845-302.142,767.716-308.808,767.716-324.758z M262.018-355.007c88.135-0.14,232.365-0.14,320.494,0
				c88.14,0.14,16.03,0.258-160.244,0.258S173.879-354.867,262.018-355.007z"/>
			<path id="path9380" inkscape:connector-curvature="0" d="M226.937,89.112c-24.39-5.231-43.237-22.427-50.257-45.865
				c-0.984-3.301-2.215-6.564-2.725-7.252c-0.683-0.919-5.639-1.258-18.557-1.274c-19.654-0.021-23.309-0.914-29.964-7.284
				c-6.273-6.005-6.617-7.354-7.166-28.196l-0.5-18.998l-11.655-0.634c-10.23-0.559-12.289-0.984-16.869-3.473
				c-2.871-1.564-6.279-4.236-7.574-5.935c-5.709-7.483-5.403,2.134-5.381-170.334c0.021-157.357,0.038-158.658,2.059-163.12
				c2.854-6.322,7.429-10.676,13.66-13.004c5.295-1.984,7.918-2,329.761-2s324.466,0.016,329.756,2
				c6.236,2.328,10.816,6.682,13.665,13.004c1.903,4.209,2.032,6.489,2.053,35.544c0.021,22.793,0.344,31.373,1.226,32.254
				c0.903,0.908,17.03,1.199,66.444,1.199h65.239l2.613,2.252c5.494,4.731,4.892,13.633-1.247,18.697l-3.731,3.07l17.385,52.241
				l17.385,52.241l11.439,11.827c8.784,9.074,12.181,13.375,14.611,18.498l3.161,6.677l0.29,64.734
				c0.28,64.374,0.269,64.761-1.871,69.739c-2.226,5.166-7.999,11.208-12.73,13.321c-1.828,0.823-12.988,1.36-35.189,1.704
				l-32.501,0.5l-1.215,8.542c-2.548,17.976-8.397,30.255-19.772,41.479c-12.794,12.628-28.405,18.912-47.005,18.922
				c-19.826,0.011-33.673-5.542-47.037-18.847c-9.214-9.171-13.525-16.111-17.342-27.916l-2.645-8.182H581.835H418.93l-2.14,6.999
				c-8.499,27.83-31.104,45.817-60.536,48.161c-19.718,1.575-42.237-7.709-55.192-22.75l-4.553-5.284l-5.817,6.284
				C274.211,86.456,250.305,94.127,226.937,89.112L226.937,89.112z M259.927,62.233c12.38-6.069,22.422-19.551,24.191-32.491
				c3.397-24.841-15.251-48.048-39.974-49.747c-18.681-1.279-34.544,8.171-43.188,25.728c-3,6.096-3.188,7.128-3.188,17.498
				c0,10.246,0.22,11.483,3.086,17.519C211.826,63.846,237.554,73.21,259.927,62.233z M234.565,33.785
				c-6.268-3.822-7.999-11.219-4.016-17.127c4.053-6.021,11.445-7.73,17.154-3.967c3.871,2.548,5.494,5.671,5.494,10.552
				c0,4.881-1.623,8.004-5.494,10.552C243.945,36.274,238.64,36.269,234.565,33.785L234.565,33.785z M370.887,62.61
				c12.439-6.123,22.003-18.788,24.556-32.534c3.365-18.089-7.746-38.087-25.873-46.57c-9.235-4.322-20.745-5.005-30.254-1.785
				c-21.261,7.187-34.2,28.335-30.093,49.193C314.813,59.33,345.508,75.103,370.887,62.61z M346.03,34.177
				c-5.542-3.005-7.746-12.472-4.177-17.922c5.494-8.381,18.67-6.687,22.309,2.871C368.162,29.63,356.099,39.645,346.03,34.177z
				 M828.698,63.357c7.698-3.586,13.138-8.021,18.073-14.724c16.331-22.191,8.053-53.117-17.503-65.293
				c-6.053-2.881-7.268-3.096-17.492-3.096c-10.278,0-11.45,0.21-17.686,3.166c-12.869,6.096-22.438,17.745-25.362,30.846
				c-5.397,24.287,12.515,49.171,37.694,52.359C813.624,67.528,822.558,66.222,828.698,63.357z M803.281,31.99
				c-3.548-3.553-4.021-4.553-4.021-8.746c0-4.193,0.473-5.193,4.021-8.746c3.828-3.833,4.215-3.983,9.085-3.516
				c4.01,0.382,5.752,1.161,8.246,3.645c2.774,2.769,3.161,3.822,3.161,8.617c0,4.795-0.387,5.849-3.161,8.617
				c-2.494,2.489-4.236,3.263-8.246,3.645C807.496,35.973,807.109,35.823,803.281,31.99z M173.954,10.492
				c0.511-0.688,1.747-3.951,2.742-7.246c2.091-6.929,4.639-12.24,8.762-18.261c2.161-3.156,2.575-4.392,1.591-4.774
				c-0.731-0.28-11.219-0.387-23.304-0.237l-21.976,0.269l-0.28,14.364c-0.188,9.741,0.091,14.81,0.871,15.751
				C143.936,12.255,172.551,12.379,173.954,10.492L173.954,10.492z M747.74,2.122c1.699-5.021,4.774-11.676,6.838-14.788
				c2.064-3.118,3.494-6.101,3.161-6.628c-0.344-0.564-9.289-0.962-21.782-0.968c-11.655,0-22.858-0.468-24.9-1.032
				c-6.58-1.833-9.934-8.214-7.881-15.057c1.989-6.628,4.085-7.333,23.546-7.908l17.041-0.495l0.258-153.896
				c0.194-112.911-0.043-154.256-0.871-155.25c-1.602-1.935-639.573-2.037-642.197-0.108c-1.586,1.172-1.683,11.354-1.441,155.25
				l0.258,154.003l281.541,0.495c263.742,0.473,281.708,0.613,284.159,2.215c1.441,0.946,3.161,3.338,3.806,5.317
				c2.365,7.155-0.925,13.439-8.085,15.498c-2.14,0.607-50.349,0.973-129.108,0.973c-69.132,0-125.92,0.366-126.2,0.812
				c-0.274,0.446,0.398,2.134,1.494,3.752c3.639,5.354,7.698,13.961,9.429,19.987c0.935,3.274,1.903,6.29,2.145,6.703
				s73.626,0.64,163.077,0.5l162.636-0.253L747.74,2.122z M137.582-78.207c-4.086-2.489-5.317-4.876-5.29-10.235
				c0.021-4.564,1.892-7.773,5.661-9.698c1.591-0.812,78.571-1.118,284.616-1.118c281.649,0,282.434,0.011,284.993,2.016
				c4.042,3.182,5.268,8.23,3.258,13.477c-3.15,8.262,25.954,7.51-289.202,7.505C145.291-76.266,140.716-76.293,137.582-78.207z
				 M938.168-3.63c0.796-0.968,1.054-9.644,0.86-29.749l-0.258-28.378l-9.999-0.527c-11.009-0.581-13.74-1.597-15.998-5.951
				c-2.903-5.623-1.064-13.563,3.752-16.181c1.236-0.667,6.741-1.468,12.246-1.779l9.999-0.559l0.28-15.799
				c0.301-17.713-0.419-21.772-4.698-26.454l-2.978-3.247l-55.8-0.016l-55.8-0.011l-5.01-2.328
				c-5.462-2.543-10.956-8.112-13.117-13.294c-1.097-2.607-1.376-11.665-1.376-43.602c0-35.646,0.183-40.576,1.634-42.635
				c3.387-4.849,5.709-5.118,43.866-5.118c27.524,0,35.673-0.285,36.039-1.253c0.258-0.688-1.677-7.773-4.279-15.751l-4.763-14.498
				l-51.617-0.258c-42.661-0.215-51.822-0.021-52.757,1.107c-0.828,1.005-1.064,30.975-0.882,113.261l0.258,111.89l27.997,0.586
				c30.824,0.645,34.071,1.161,46.296,7.311c12.751,6.424,22.341,15.874,29.255,28.835l3.075,5.768h31.308
				c25.32,0,31.545-0.263,32.458-1.371H938.168z M909.785-156.283c0.667-1.075-17.052-55.552-18.783-57.735
				c-0.785-0.984-8.375-1.204-34.114-1l-33.114,0.263l-0.28,28.378c-0.183,20.1,0.075,28.776,0.882,29.749
				c0.925,1.124,8.752,1.371,42.963,1.371C894.819-155.257,909.365-155.606,909.785-156.283L909.785-156.283z"/>
		</g>
	</g>
</g>
</svg>
